<svg width="19" height="32" viewBox="0 0 19 32" fill="none" xmlns="http://www.w3.org/2000/svg">
<mask id="path-1-outside-1_1_1033" maskUnits="userSpaceOnUse" x="-0.970337" y="-0.246582" width="20" height="32" fill="black">
<rect fill="white" x="-0.970337" y="-0.246582" width="20" height="32"/>
<path d="M2.02672 25.5533L7.86713 14.7178L11.7095 13.642C11.2484 14.4617 10.7361 15.1533 10.1726 15.7168C9.60901 16.2292 8.96861 16.4853 8.25137 16.4853C6.66318 16.4853 5.20308 15.8193 3.87106 14.4873C2.53903 13.1553 1.87302 11.4646 1.87302 9.41534C1.87302 7.26361 2.59026 5.41927 4.02475 3.88232C5.51047 2.29414 7.35481 1.50005 9.55777 1.50005C11.6583 1.50005 13.477 2.26852 15.0139 3.80548C16.5509 5.34243 17.3194 7.21238 17.3194 9.41534C17.3194 10.3375 17.1401 11.3878 16.7814 12.5661C16.4228 13.7444 15.7312 15.2814 14.7066 17.1769L8.32821 29.0115L2.02672 25.5533Z"/>
</mask>
<path d="M2.02672 25.5533L0.706311 24.8416L-4.98295e-05 26.1521L1.30507 26.8683L2.02672 25.5533ZM7.86713 14.7178L7.46268 13.2734L6.84906 13.4452L6.54672 14.0061L7.86713 14.7178ZM11.7095 13.642L13.0169 14.3773L14.7923 11.2211L11.3051 12.1975L11.7095 13.642ZM10.1726 15.7168L11.1816 16.8268L11.208 16.8027L11.2332 16.7775L10.1726 15.7168ZM3.87106 14.4873L2.8104 15.5479H2.8104L3.87106 14.4873ZM4.02475 3.88232L2.92934 2.85759L2.92817 2.85884L4.02475 3.88232ZM15.0139 3.80548L13.9533 4.86614H13.9533L15.0139 3.80548ZM14.7066 17.1769L13.387 16.4637L13.3861 16.4653L14.7066 17.1769ZM8.32821 29.0115L7.60657 30.3265L8.93157 31.0536L9.64864 29.7231L8.32821 29.0115ZM2.02672 25.5533L3.34712 26.265L9.18753 15.4295L7.86713 14.7178L6.54672 14.0061L0.706311 24.8416L2.02672 25.5533ZM7.86713 14.7178L8.27157 16.1623L12.1139 15.0864L11.7095 13.642L11.3051 12.1975L7.46268 13.2734L7.86713 14.7178ZM11.7095 13.642L10.4021 12.9066C9.99639 13.6279 9.56324 14.2048 9.11189 14.6562L10.1726 15.7168L11.2332 16.7775C11.909 16.1018 12.5004 15.2954 13.0169 14.3773L11.7095 13.642ZM10.1726 15.7168L9.16355 14.6069C8.85743 14.8852 8.57096 14.9853 8.25137 14.9853V16.4853V17.9853C9.36625 17.9853 10.3606 17.5731 11.1816 16.8268L10.1726 15.7168ZM8.25137 16.4853V14.9853C7.13405 14.9853 6.03868 14.5336 4.93172 13.4266L3.87106 14.4873L2.8104 15.5479C4.36748 17.105 6.19231 17.9853 8.25137 17.9853V16.4853ZM3.87106 14.4873L4.93172 13.4266C3.90711 12.402 3.37302 11.1053 3.37302 9.41534H1.87302H0.373021C0.373021 11.8239 1.17095 13.9085 2.8104 15.5479L3.87106 14.4873ZM1.87302 9.41534H3.37302C3.37302 7.63366 3.95276 6.15785 5.12133 4.9058L4.02475 3.88232L2.92817 2.85884C1.22777 4.6807 0.373021 6.89356 0.373021 9.41534H1.87302ZM4.02475 3.88232L5.12016 4.90706C6.3181 3.6265 7.76388 3.00005 9.55777 3.00005V1.50005V4.95911e-05C6.94575 4.95911e-05 4.70284 0.961782 2.92934 2.85759L4.02475 3.88232ZM9.55777 1.50005V3.00005C11.2452 3.00005 12.6867 3.59956 13.9533 4.86614L15.0139 3.80548L16.0746 2.74482C14.2673 0.937494 12.0713 4.95911e-05 9.55777 4.95911e-05V1.50005ZM15.0139 3.80548L13.9533 4.86614C15.2047 6.11754 15.8194 7.60416 15.8194 9.41534H17.3194H18.8194C18.8194 6.8206 17.8971 4.56731 16.0746 2.74482L15.0139 3.80548ZM17.3194 9.41534H15.8194C15.8194 10.1494 15.6755 11.0483 15.3464 12.1293L16.7814 12.5661L18.2165 13.0028C18.6047 11.7273 18.8194 10.5256 18.8194 9.41534H17.3194ZM16.7814 12.5661L15.3464 12.1293C15.0308 13.1664 14.3937 14.6012 13.387 16.4637L14.7066 17.1769L16.0261 17.8902C17.0687 15.9615 17.8148 14.3224 18.2165 13.0028L16.7814 12.5661ZM14.7066 17.1769L13.3861 16.4653L7.00778 28.2998L8.32821 29.0115L9.64864 29.7231L16.027 17.8886L14.7066 17.1769ZM8.32821 29.0115L9.04986 27.6965L2.74836 24.2383L2.02672 25.5533L1.30507 26.8683L7.60657 30.3265L8.32821 29.0115Z" fill="white" mask="url(#path-1-outside-1_1_1033)"/>
</svg>
