<svg width="20" height="20" viewBox="0 0 20 20" fill="none" xmlns="http://www.w3.org/2000/svg">
<path d="M15 9.99989C15 9.99989 15 9.93989 15 9.90989C14.9954 9.8139 14.9752 9.71932 14.94 9.62989C14.9133 9.5613 14.8762 9.49722 14.83 9.43989C14.8035 9.39424 14.7734 9.35078 14.74 9.30989L11.88 6.30989C11.7894 6.21468 11.6809 6.13825 11.5608 6.08496C11.4406 6.03168 11.3111 6.00258 11.1797 5.99933C10.9144 5.99277 10.6573 6.09189 10.465 6.27489C10.2727 6.45788 10.161 6.70977 10.1544 6.97514C10.1479 7.2405 10.247 7.4976 10.43 7.68989L11.66 8.99989H6C5.73478 8.99989 5.48043 9.10524 5.29289 9.29278C5.10536 9.48032 5 9.73467 5 9.99989C5 10.2651 5.10536 10.5195 5.29289 10.707C5.48043 10.8945 5.73478 10.9999 6 10.9999H11.59L10.29 12.2899C10.1963 12.3828 10.1219 12.4934 10.0711 12.6153C10.0203 12.7372 9.9942 12.8679 9.9942 12.9999C9.9942 13.1319 10.0203 13.2626 10.0711 13.3845C10.1219 13.5063 10.1963 13.6169 10.29 13.7099C10.383 13.8036 10.4936 13.878 10.6154 13.9288C10.7373 13.9795 10.868 14.0057 11 14.0057C11.132 14.0057 11.2627 13.9795 11.3846 13.9288C11.5064 13.878 11.617 13.8036 11.71 13.7099L14.71 10.7099C14.7999 10.6177 14.8713 10.5091 14.92 10.3899C14.9725 10.2666 14.9997 10.1339 15 9.99989Z" fill="#FA614F"/>
<path d="M10 0C8.02219 0 6.08879 0.58649 4.4443 1.6853C2.79981 2.78412 1.51809 4.3459 0.761209 6.17317C0.00433284 8.00043 -0.193701 10.0111 0.192152 11.9509C0.578004 13.8907 1.53041 15.6725 2.92894 17.0711C4.32746 18.4696 6.10929 19.422 8.0491 19.8079C9.98891 20.1937 11.9996 19.9957 13.8268 19.2388C15.6541 18.4819 17.2159 17.2002 18.3147 15.5557C19.4135 13.9112 20 11.9778 20 10C20 8.68678 19.7413 7.38642 19.2388 6.17317C18.7363 4.95991 17.9997 3.85752 17.0711 2.92893C16.1425 2.00035 15.0401 1.26375 13.8268 0.761205C12.6136 0.258658 11.3132 0 10 0ZM10 18C8.41775 18 6.87104 17.5308 5.55544 16.6518C4.23985 15.7727 3.21447 14.5233 2.60897 13.0615C2.00347 11.5997 1.84504 9.99113 2.15372 8.43928C2.4624 6.88743 3.22433 5.46197 4.34315 4.34315C5.46197 3.22433 6.88743 2.4624 8.43928 2.15372C9.99113 1.84504 11.5997 2.00346 13.0615 2.60896C14.5233 3.21447 15.7727 4.23984 16.6518 5.55544C17.5308 6.87103 18 8.41775 18 10C18 12.1217 17.1572 14.1566 15.6569 15.6569C14.1566 17.1571 12.1217 18 10 18Z" fill="#FA614F"/>
</svg>
