<svg width="40" height="10" viewBox="0 0 40 10" fill="none" xmlns="http://www.w3.org/2000/svg">
<path fill-rule="evenodd" clip-rule="evenodd" d="M18.8552 3.28298C19.3257 2.86347 19.8421 2.49542 20.3898 2.17833C21.6431 1.45206 23.0624 0.98992 24.4816 0.756577C26.3741 0.449322 28.4392 0.44377 30.4075 0.832508C32.366 1.21998 34.2292 1.99846 35.7238 3.2676C36.2217 3.68913 36.6906 4.1712 37.1235 4.68204C37.5559 5.19211 37.9537 5.7307 38.2676 6.30459L38.8756 7.5654L39.101 8.1509L39.1215 8.15822L39.1184 8.15948C39.0965 8.17109 39.0886 8.19833 39.1002 8.21952L39.2021 8.17512C39.2416 8.08658 39.25 7.98517 39.2421 7.87569C39.2324 7.73291 39.1845 7.58836 39.1608 7.47131C39.1128 7.28236 39.0618 7.09544 38.9986 6.91078C38.9046 6.63329 38.7871 6.36488 38.6639 6.10076C38.365 5.47944 37.9911 4.87956 37.5496 4.32988C37.1093 3.78272 36.6022 3.28905 36.0787 2.84758C34.5088 1.52674 32.5582 0.715965 30.5075 0.320668C28.4774 -0.0710955 26.3496 -0.0552065 24.4013 0.270213C22.925 0.514907 21.4536 1.00556 20.1467 1.7568C19.574 2.08651 19.0329 2.46616 18.5374 2.89854C16.042 0.0401486 12.2318 -0.578148 8.5963 0.493212C6.74785 1.03785 4.9252 1.99872 3.40089 3.35968C1.95057 4.65378 0.784092 6.30005 0.0104829 8.15973C-0.0155867 8.21548 0.00863659 8.28183 0.0644571 8.30781C0.120281 8.33404 0.186642 8.30957 0.212708 8.25382C1.11087 6.5286 2.40609 5.08868 3.868 3.90986C5.37283 2.69647 7.06777 1.76865 8.8209 1.2664C12.1652 0.308052 15.6686 0.830988 17.9489 3.46108C17.5426 3.88564 17.1776 4.35258 16.863 4.86518C16.4288 5.57202 16.0104 6.63732 16.0565 7.57246C16.0904 8.26669 16.3703 8.89281 17.0531 9.29718C17.7319 9.70282 18.4523 9.65918 19.0419 9.34335C19.622 9.03306 20.0717 8.4458 20.2297 7.74123C20.3779 7.08232 20.3226 6.39742 20.1417 5.73902C19.9661 5.10332 19.6699 4.49359 19.3352 3.96031C19.1825 3.72268 19.0221 3.49741 18.8552 3.28298ZM18.2709 3.85638C17.9107 4.24562 17.5876 4.67144 17.3077 5.13535C16.927 5.76626 16.542 6.71174 16.5965 7.54144C16.6299 8.04798 16.8406 8.50583 17.3459 8.78812C17.827 9.05526 18.3267 9.01414 18.7299 8.78156C19.1398 8.54468 19.4458 8.10928 19.543 7.5992C19.6462 7.05204 19.5727 6.49101 19.4076 5.95293C19.2357 5.39594 18.9608 4.86467 18.6527 4.40076C18.5308 4.21081 18.4034 4.02994 18.2709 3.85638Z" fill="#FA614F"/>
</svg>
