<svg width="25" height="25" viewBox="0 0 25 25" fill="none" xmlns="http://www.w3.org/2000/svg">
<path d="M25 12.5C25 5.6 19.4 0 12.5 0C5.6 0 0 5.6 0 12.5C0 19.4 5.6 25 12.5 25C19.4 25 25 19.4 25 12.5ZM12.5 15.9875V13.75H8.75C8.0625 13.75 7.5 13.1875 7.5 12.5C7.5 11.8125 8.0625 11.25 8.75 11.25H12.5V9.0125C12.5 8.45 13.175 8.175 13.5625 8.575L17.05 12.0625C17.3 12.3125 17.3 12.7 17.05 12.95L13.5625 16.4375C13.4744 16.5239 13.3627 16.5822 13.2414 16.6052C13.1202 16.6282 12.9949 16.6148 12.8812 16.5667C12.7676 16.5186 12.6708 16.4379 12.6029 16.3348C12.5351 16.2317 12.4993 16.1109 12.5 15.9875Z" fill="#8C01DB"/>
</svg>
