<svg width="105" height="102" viewBox="0 0 105 102" fill="none" xmlns="http://www.w3.org/2000/svg">
<path opacity="0.2" fill-rule="evenodd" clip-rule="evenodd" d="M53.8154 0C82.7585 0 104.399 25.2242 104.399 54.1673C104.399 81.1468 80.7949 101.221 53.8154 101.221C25.8986 101.221 0 82.0841 0 54.1673C0 24.3485 23.9966 0 53.8154 0Z" fill="white"/>
<path d="M51.7676 20.6216C43.33 20.7415 31.9932 23.8287 32.1851 33.7379C32.3851 44.0829 43.8498 40.384 44.7815 44.6108C44.9215 44.4308 45.1334 44.2829 45.2814 44.1109C46.0692 43.2552 46.861 42.5594 47.6527 41.7356C48.9004 40.328 50.196 39.0204 51.5196 37.6128C55.9424 32.9021 56.1343 32.6142 66.6994 24.6164C62.5605 22.1371 57.6699 20.7575 53.5151 20.6176C52.9792 20.6016 52.3314 20.6176 51.7676 20.6216ZM44.1577 26.7398C47.4648 26.7398 50.144 29.4271 50.144 32.7381C50.1432 33.9239 49.7908 35.0827 49.1313 36.0681C48.4718 37.0535 47.5349 37.8212 46.439 38.2741C45.3432 38.7269 44.1376 38.8446 42.9749 38.6122C41.8122 38.3798 40.7445 37.8078 39.9069 36.9685C39.0693 36.1292 38.4994 35.0604 38.2693 33.8972C38.0393 32.734 38.1594 31.5287 38.6144 30.4337C39.0694 29.3388 39.839 28.4034 40.8257 27.7459C41.8124 27.0884 42.972 26.7383 44.1577 26.7398ZM73.2255 29.3871C67.5551 38.3246 63.7562 43.6071 59.7493 47.7339C57.194 50.3612 55.0986 52.9764 53.2631 54.8519C49.9081 58.4149 45.5133 62.6177 40.6667 67.2244C40.9186 73.0987 43.9058 78.2053 53.639 80.0928C69.2266 83.1159 85.738 72.7988 84.0744 51.8567C83.3626 42.8673 78.456 34.7376 73.2255 29.3871ZM74.5931 44.6108C75.6537 44.6108 76.6708 45.0321 77.4207 45.782C78.1707 46.532 78.592 47.5491 78.592 48.6097C78.592 49.6702 78.1707 50.6873 77.4207 51.4373C76.6708 52.1872 75.6537 52.6085 74.5931 52.6085C73.5326 52.6085 72.5154 52.1872 71.7655 51.4373C71.0156 50.6873 70.5943 49.6702 70.5943 48.6097C70.5943 47.5491 71.0156 46.532 71.7655 45.782C72.5154 45.0321 73.5326 44.6108 74.5931 44.6108ZM72.0978 56.6074C73.136 56.6402 74.1206 57.0757 74.8434 57.8217C75.5661 58.5677 75.9703 59.5656 75.9703 60.6043C75.9703 61.6429 75.5661 62.6409 74.8434 63.3868C74.1206 64.1328 73.136 64.5683 72.0978 64.6011C71.0373 64.6011 70.0201 64.1798 69.2702 63.4299C68.5203 62.68 68.099 61.6628 68.099 60.6023C68.099 59.5417 68.5203 58.5246 69.2702 57.7746C70.0201 57.0247 71.0373 56.6074 72.0978 56.6074ZM52.1435 64.5971C53.204 64.5971 54.2212 65.0184 54.9711 65.7684C55.721 66.5183 56.1423 67.5354 56.1423 68.596C56.1423 69.6566 55.721 70.6737 54.9711 71.4236C54.2212 72.1736 53.204 72.5949 52.1435 72.5949C51.0829 72.5949 50.0658 72.1736 49.3158 71.4236C48.5659 70.6737 48.1446 69.6566 48.1446 68.596C48.1446 67.5354 48.5659 66.5183 49.3158 65.7684C50.0658 65.0184 51.0829 64.5971 52.1435 64.5971ZM64.1161 64.5971C65.1766 64.5971 66.1938 65.0184 66.9437 65.7684C67.6936 66.5183 68.1149 67.5354 68.1149 68.596C68.1149 69.6566 67.6936 70.6737 66.9437 71.4236C66.1938 72.1736 65.1766 72.5949 64.1161 72.5949C63.0555 72.5949 62.0384 72.1736 61.2885 71.4236C60.5385 70.6737 60.1172 69.6566 60.1172 68.596C60.1172 67.5354 60.5385 66.5183 61.2885 65.7684C62.0384 65.0184 63.0555 64.5971 64.1161 64.5971ZM20.2085 74.5943C26.4147 74.5943 25.7829 67.4443 28.7941 65.4529C32.2891 63.1455 35.3482 66.0047 35.96 68.3561C36.7278 71.3232 35.4922 74.8782 31.4413 75.8939C27.1465 76.9656 20.7963 76.9976 20.2085 74.5903V74.5943Z" fill="#F4F5F8"/>
<path d="M76.3406 20.6212C69.1427 25.8157 59.5214 33.8255 51.8875 41.9472C51.1957 42.687 50.5279 43.3988 49.8721 44.1346C49.4562 44.5664 49.0244 44.9183 48.6125 45.3662C48.3486 45.6741 48.1086 46.018 47.8527 46.3259C40.3628 54.6036 32.9769 65.0406 28.1902 72.8464C40.0989 63.661 47.8487 56.1911 52.7713 50.9726C53.731 49.9889 54.8907 48.7053 56.1703 47.2817C60.985 41.9432 67.871 33.5335 76.3406 20.6212Z" fill="#F4F5F8"/>
</svg>
