<svg width="21" height="20" viewBox="0 0 21 20" fill="none" xmlns="http://www.w3.org/2000/svg">
<path d="M7.96995 19.9624C5.63687 19.4345 3.7251 18.2424 2.23465 16.3862C0.744203 14.5299 -0.000680725 12.4012 4.66783e-07 10C4.66783e-07 7.5988 0.745225 5.47007 2.23567 3.61382C3.72612 1.75758 5.63755 0.56549 7.96995 0.0375658C8.29351 -0.0475833 8.57893 0.012021 8.82621 0.216379C9.07348 0.420736 9.19677 0.693213 9.19609 1.03381C9.19609 1.27223 9.12797 1.4851 8.99174 1.67243C8.8555 1.85975 8.66817 1.97896 8.42975 2.03005C6.55647 2.4558 5.02379 3.40947 3.83171 4.89106C2.63962 6.37265 2.04358 8.07563 2.04358 10C2.04358 11.9244 2.63962 13.6273 3.83171 15.1089C5.02379 16.5905 6.55647 17.5442 8.42975 17.9699C8.66817 18.021 8.8555 18.1402 8.99174 18.3276C9.12797 18.5149 9.19609 18.7278 9.19609 18.9662C9.19609 19.3068 9.0728 19.5793 8.82621 19.7836C8.57961 19.988 8.2942 20.0476 7.96995 19.9624ZM12.4658 19.9624C12.1422 20.0476 11.8572 19.988 11.6106 19.7836C11.364 19.5793 11.2404 19.3068 11.2397 18.9662C11.2397 18.7278 11.3078 18.5149 11.444 18.3276C11.5803 18.1402 11.7676 18.021 12.006 17.9699C12.4658 17.8678 12.913 17.7271 13.3476 17.5479C13.7822 17.3688 14.195 17.1518 14.586 16.8971C14.7734 16.7608 14.9821 16.7097 15.2124 16.7438C15.4426 16.7779 15.6426 16.88 15.8122 17.0503C16.0506 17.2888 16.1528 17.5657 16.1187 17.8811C16.0846 18.1964 15.9314 18.4475 15.6589 18.6341C15.165 18.9406 14.6497 19.2046 14.1129 19.426C13.5762 19.6474 13.0271 19.8262 12.4658 19.9624ZM17.2682 15.6198C17.0979 15.4495 16.9957 15.2496 16.9617 15.02C16.9276 14.7905 16.9787 14.5817 17.115 14.3937C17.3704 14.002 17.5877 13.5848 17.7669 13.142C17.946 12.6992 18.0863 12.2479 18.1878 11.7881C18.2389 11.5497 18.3581 11.3668 18.5455 11.2394C18.7328 11.112 18.9457 11.048 19.1841 11.0473C19.5247 11.0473 19.7971 11.171 20.0015 11.4182C20.2059 11.6655 20.2655 11.9506 20.1803 12.2735C20.0441 12.8355 19.8653 13.3848 19.6439 13.9216C19.4225 14.4584 19.1585 14.9734 18.852 15.4666C18.6647 15.739 18.4136 15.8923 18.0989 15.9264C17.7842 15.9604 17.5073 15.8583 17.2682 15.6198ZM19.1841 8.97821C18.9457 8.97821 18.7328 8.91009 18.5455 8.77386C18.3581 8.63762 18.2389 8.45029 18.1878 8.21187C18.0856 7.75207 17.945 7.3052 17.7658 6.87128C17.5867 6.43737 17.3697 6.02422 17.115 5.63186C16.9787 5.4275 16.9276 5.21054 16.9617 4.98098C16.9957 4.75141 17.0979 4.55114 17.2682 4.38017C17.5066 4.14175 17.7835 4.03957 18.0989 4.07363C18.4143 4.10769 18.6653 4.26947 18.852 4.55898C19.1585 5.05284 19.4225 5.56816 19.6439 6.10494C19.8653 6.64172 20.0441 7.19076 20.1803 7.75207C20.2655 8.07563 20.2059 8.36105 20.0015 8.60832C19.7971 8.8556 19.5247 8.97889 19.1841 8.97821ZM14.586 3.10293C14.1943 2.84748 13.7815 2.63018 13.3476 2.45103C12.9137 2.27188 12.4665 2.13155 12.006 2.03005C11.7676 1.97896 11.5803 1.85975 11.444 1.67243C11.3078 1.4851 11.2397 1.27223 11.2397 1.03381C11.2397 0.693213 11.3633 0.420736 11.6106 0.216379C11.8579 0.012021 12.1429 -0.0475833 12.4658 0.0375658C13.0278 0.173804 13.5772 0.352617 14.114 0.574005C14.6507 0.795392 15.1657 1.05935 15.6589 1.36589C15.9484 1.55322 16.1102 1.80458 16.1443 2.11997C16.1783 2.43536 16.0761 2.71193 15.8377 2.94966C15.6674 3.11996 15.4675 3.22214 15.2379 3.2562C15.0084 3.29026 14.7911 3.23917 14.586 3.10293ZM11.2141 11.1495L13.1044 9.2592C13.3088 9.05485 13.5557 8.95267 13.8452 8.95267C14.1347 8.95267 14.3817 9.05485 14.586 9.2592C14.7904 9.46356 14.8885 9.71049 14.8803 10C14.8721 10.2895 14.7655 10.5364 14.5605 10.7408L10.9076 14.3937C10.7203 14.581 10.4818 14.6747 10.1923 14.6747C9.90283 14.6747 9.66441 14.581 9.47708 14.3937L5.7731 10.6642C5.56875 10.4598 5.47065 10.2173 5.47883 9.93665C5.487 9.656 5.59361 9.41315 5.79865 9.20811C6.00301 9.00376 6.24585 8.90158 6.52718 8.90158C6.80852 8.90158 7.05102 9.00376 7.2547 9.20811L9.17055 11.1495V5.91285C9.17055 5.62334 9.26864 5.38084 9.46482 5.18533C9.66101 4.98983 9.90351 4.89174 10.1923 4.89106C10.4818 4.89106 10.7247 4.98915 10.9209 5.18533C11.1171 5.38152 11.2148 5.62402 11.2141 5.91285V11.1495Z" fill="#FA614F"/>
</svg>
