<svg width="55" height="55" viewBox="0 0 55 55" fill="none" xmlns="http://www.w3.org/2000/svg">
<circle opacity="0.25" cx="27.1289" cy="27.1289" r="27.1289" fill="#8C01DB"/>
<path fill-rule="evenodd" clip-rule="evenodd" d="M27.1288 13.1289C19.4008 13.1289 13.1288 19.4009 13.1288 27.1289C13.1288 34.8569 19.4008 41.1289 27.1288 41.1289C34.8428 41.1289 41.1288 34.8569 41.1288 27.1289C41.1288 19.4009 34.8428 13.1289 27.1288 13.1289ZM36.3758 19.5829C38.0995 21.6815 39.0536 24.3065 39.0795 27.0222C38.684 26.9469 34.736 26.1419 30.7583 26.6424C30.6673 26.4464 30.5903 26.2329 30.4993 26.0212C30.256 25.4437 29.983 24.8522 29.71 24.2887C34.113 22.4984 36.1185 19.9172 36.3775 19.5812L36.3758 19.5829ZM27.1288 15.1939C30.165 15.1939 32.944 16.3314 35.0563 18.2004C34.8428 18.5049 33.035 20.9182 28.7843 22.5124C26.8243 18.9144 24.6543 15.9674 24.32 15.5124C25.2409 15.2982 26.1834 15.1913 27.1288 15.1939ZM22.0415 16.3174C23.6443 18.538 25.1247 20.8444 26.476 23.2264C20.8883 24.7139 15.9533 24.6842 15.4213 24.6842C15.8067 22.8744 16.6045 21.1781 17.7528 19.7272C18.9011 18.2763 20.3688 17.1083 22.0415 16.3174ZM15.164 27.1464V26.7789C15.6803 26.7964 21.4815 26.8717 27.449 25.0797C27.7973 25.7464 28.1158 26.4307 28.4203 27.1132L27.9478 27.2497C21.7843 29.2394 18.5048 34.6749 18.23 35.1317C16.2562 32.9397 15.1639 30.0944 15.164 27.1447V27.1464ZM27.1288 39.0937C24.4718 39.0958 21.8906 38.2087 19.7963 36.5737C20.0063 36.1327 22.437 31.4567 29.178 29.1029C29.2095 29.0872 29.2235 29.0872 29.255 29.0732C30.3909 32.007 31.2447 35.0424 31.8048 38.1382C30.3281 38.7739 28.7365 39.0991 27.1288 39.0937ZM33.7963 37.0444C33.6738 36.3147 33.035 32.8234 31.4723 28.5254C35.2225 27.9339 38.502 28.9052 38.9115 29.0417C38.6569 30.6564 38.0708 32.201 37.1902 33.5783C36.3095 34.9556 35.1534 36.1357 33.7945 37.0444H33.7963Z" fill="white"/>
</svg>
