<svg width="25" height="25" viewBox="0 0 25 25" fill="none" xmlns="http://www.w3.org/2000/svg">
<path d="M12.5 0C5.59374 0.00104567 0 5.59374 0 12.501C0 19.4063 5.59374 25 12.5 25C19.4063 25 25 19.4063 25 12.501C25.0001 5.59374 19.4063 0.00104567 12.5 0ZM20.1625 6.48125C21.3813 8.02915 22.1407 9.94795 22.2386 12.0385C20.8251 11.7427 19.4865 11.5959 18.2563 11.5959H18.2396C17.2396 11.5959 16.3042 11.6907 15.4115 11.8417C15.2052 11.3167 14.9875 10.8115 14.7677 10.3261C16.7302 9.4625 18.6281 8.22919 20.1625 6.48125ZM12.5 2.74791C14.7979 2.74791 16.9135 3.55417 18.5792 4.89372C17.3062 6.42081 15.6198 7.53225 13.7927 8.31247C12.5125 5.83435 11.275 4.06456 10.4271 2.98015C11.0969 2.83334 11.7896 2.74791 12.5 2.74791ZM8.19274 3.76356C8.86568 4.56669 10.2261 6.32398 11.6719 9.07084C8.72818 9.94795 5.76361 10.1552 3.96877 10.1552C3.91775 10.1552 3.8698 10.1552 3.81982 10.1531H3.81773C3.51459 10.1531 3.2573 10.1458 3.03855 10.1343C3.73753 7.33749 5.65418 5.01773 8.19274 3.76356ZM2.74686 12.501C2.74686 12.4604 2.74791 12.4042 2.75622 12.3563C3.02914 12.374 3.39057 12.3781 3.81872 12.3781H3.82081C5.78227 12.3667 9.20312 12.2052 12.6708 11.1073C12.8573 11.5208 13.0448 11.951 13.2323 12.4C10.9146 13.1771 9.0927 14.4052 7.7406 15.6302C6.44266 16.8209 5.56561 17.9927 5.05308 18.7739C3.61565 17.0709 2.74791 14.8927 2.74686 12.501ZM12.5 22.2605C10.3281 22.2605 8.3281 21.5354 6.71041 20.3333C7.05417 19.7698 7.78854 18.674 8.97082 17.55C10.1802 16.3833 11.8521 15.1875 14.0354 14.476C14.775 16.5542 15.451 18.9396 15.9646 21.6115C14.8875 22.024 13.7188 22.2605 12.5 22.2605ZM18.0188 20.5271C17.526 18.1094 16.8979 15.9157 16.2156 13.9667C16.851 13.873 17.524 13.823 18.2167 13.823H18.2427H18.2562C19.4104 13.823 20.6979 13.9677 22.074 14.2834C21.6011 16.8667 20.098 19.0886 18.0188 20.5271Z" fill="white"/>
</svg>
