<svg width="105" height="102" viewBox="0 0 105 102" fill="none" xmlns="http://www.w3.org/2000/svg">
<path opacity="0.2" fill-rule="evenodd" clip-rule="evenodd" d="M53.8154 0C82.7585 0 104.399 25.2242 104.399 54.1673C104.399 81.1468 80.7949 101.221 53.8154 101.221C25.8986 101.221 0 82.0841 0 54.1673C0 24.3485 23.9966 0 53.8154 0Z" fill="#8C01DB"/>
<path opacity="0.6" d="M52.2018 20.6106H42.1993C39.5468 20.6106 37.003 21.6643 35.1275 23.5398C33.2519 25.4154 32.1982 27.9592 32.1982 30.6116C32.1982 33.2641 33.2519 35.8079 35.1275 37.6834C37.003 39.559 39.5468 40.6127 42.1993 40.6127H52.2018V20.6106Z" fill="#170A24"/>
<path opacity="0.4" d="M52.2019 40.6132H42.1994C39.5473 40.6132 37.0039 41.6667 35.1286 43.542C33.2533 45.4172 32.1998 47.9607 32.1998 50.6127C32.1998 53.2647 33.2533 55.8082 35.1286 57.6834C37.0039 59.5587 39.5473 60.6122 42.1994 60.6122H52.2019V40.6132Z" fill="#170A24"/>
<path d="M72.2007 50.6127C72.2007 53.2652 71.147 55.809 69.2714 57.6845C67.3959 59.5601 64.8521 60.6138 62.1996 60.6138C59.5472 60.6138 57.0034 59.5601 55.1278 57.6845C53.2523 55.809 52.1986 53.2652 52.1986 50.6127C52.1986 47.9603 53.2523 45.4165 55.1278 43.5409C57.0034 41.6654 59.5472 40.6117 62.1996 40.6117C64.8521 40.6117 67.3959 41.6654 69.2714 43.5409C71.147 45.4165 72.2007 47.9603 72.2007 50.6127Z" fill="#170A24"/>
<path opacity="0.2" d="M42.1989 60.6144H52.2015V70.614C52.2009 72.5914 51.614 74.5243 50.515 76.1683C49.416 77.8123 47.8542 79.0934 46.0272 79.8499C44.2001 80.6064 42.1898 80.8042 40.2504 80.4182C38.3109 80.0323 36.5295 79.08 35.1312 77.6817C33.7329 76.2834 32.7806 74.502 32.3947 72.5625C32.0088 70.6231 32.2065 68.6128 32.963 66.7857C33.7195 64.9587 35.0007 63.3969 36.6446 62.2979C38.2886 61.1989 40.2215 60.615 42.1989 60.6144Z" fill="#170A24"/>
<path opacity="0.8" d="M52.1986 20.6106H62.1981C64.8506 20.6106 67.3944 21.6643 69.2699 23.5398C71.1455 25.4154 72.1992 27.9592 72.1992 30.6116C72.1992 33.2641 71.1455 35.8079 69.2699 37.6834C67.3944 39.559 64.8506 40.6127 62.1981 40.6127H52.1986V20.6106Z" fill="#170A24"/>
</svg>
