<svg width="1920" height="962" viewBox="0 0 1920 962" fill="none" xmlns="http://www.w3.org/2000/svg">
<g opacity="0.08">
<path fill-rule="evenodd" clip-rule="evenodd" d="M-0.51416 960.926L-0.514112 0L0.485888 4.37115e-08L0.48584 960.926H-0.51416Z" fill="url(#paint0_linear_1_878)"/>
<path fill-rule="evenodd" clip-rule="evenodd" d="M136.631 960.926L136.631 0L137.631 4.37115e-08L137.631 960.926H136.631Z" fill="url(#paint1_linear_1_878)"/>
<path fill-rule="evenodd" clip-rule="evenodd" d="M273.776 960.926L273.776 0L274.776 4.37115e-08L274.776 960.926H273.776Z" fill="url(#paint2_linear_1_878)"/>
<path fill-rule="evenodd" clip-rule="evenodd" d="M410.92 960.926L410.92 0L411.92 4.37115e-08L411.92 960.926H410.92Z" fill="url(#paint3_linear_1_878)"/>
<path fill-rule="evenodd" clip-rule="evenodd" d="M548.065 960.926L548.065 0L549.065 4.37115e-08L549.065 960.926H548.065Z" fill="url(#paint4_linear_1_878)"/>
<path fill-rule="evenodd" clip-rule="evenodd" d="M685.21 960.926L685.21 0L686.21 4.37115e-08L686.21 960.926H685.21Z" fill="url(#paint5_linear_1_878)"/>
<path fill-rule="evenodd" clip-rule="evenodd" d="M822.355 960.926L822.355 0L823.355 4.37115e-08L823.355 960.926H822.355Z" fill="url(#paint6_linear_1_878)"/>
<path fill-rule="evenodd" clip-rule="evenodd" d="M959.5 960.926L959.5 0L960.5 4.37115e-08L960.5 960.926H959.5Z" fill="url(#paint7_linear_1_878)"/>
<path fill-rule="evenodd" clip-rule="evenodd" d="M1096.64 960.926L1096.64 0L1097.64 4.37115e-08L1097.64 960.926H1096.64Z" fill="url(#paint8_linear_1_878)"/>
<path fill-rule="evenodd" clip-rule="evenodd" d="M1233.79 960.926L1233.79 0L1234.79 4.37115e-08L1234.79 960.926H1233.79Z" fill="url(#paint9_linear_1_878)"/>
<path fill-rule="evenodd" clip-rule="evenodd" d="M1370.93 960.926L1370.93 0L1371.93 4.37115e-08L1371.93 960.926H1370.93Z" fill="url(#paint10_linear_1_878)"/>
<path fill-rule="evenodd" clip-rule="evenodd" d="M1508.08 960.926L1508.08 0L1509.08 4.37115e-08L1509.08 960.926H1508.08Z" fill="url(#paint11_linear_1_878)"/>
<path fill-rule="evenodd" clip-rule="evenodd" d="M1645.22 960.926L1645.22 0L1646.22 4.37115e-08L1646.22 960.926H1645.22Z" fill="url(#paint12_linear_1_878)"/>
<path fill-rule="evenodd" clip-rule="evenodd" d="M1782.37 960.926L1782.37 0L1783.37 4.37115e-08L1783.37 960.926H1782.37Z" fill="url(#paint13_linear_1_878)"/>
<path fill-rule="evenodd" clip-rule="evenodd" d="M1919.51 960.926L1919.51 0L1920.51 4.37115e-08L1920.51 960.926H1919.51Z" fill="url(#paint14_linear_1_878)"/>
<path fill-rule="evenodd" clip-rule="evenodd" d="M-0.514112 0L1920.51 4.37115e-08V1.00017L-0.514092 1.00004L-0.514112 0Z" fill="url(#paint15_linear_1_878)"/>
<path fill-rule="evenodd" clip-rule="evenodd" d="M-0.514097 137.145L1920.51 137.145V138.145L-0.514098 138.145L-0.514097 137.145Z" fill="url(#paint16_linear_1_878)"/>
<path fill-rule="evenodd" clip-rule="evenodd" d="M-0.514103 274.29L1920.51 274.29V275.29L-0.514104 275.29L-0.514103 274.29Z" fill="url(#paint17_linear_1_878)"/>
<path fill-rule="evenodd" clip-rule="evenodd" d="M-0.514109 411.435L1920.51 411.435V412.435L-0.51411 412.435L-0.514109 411.435Z" fill="url(#paint18_linear_1_878)"/>
<path fill-rule="evenodd" clip-rule="evenodd" d="M-0.514115 548.58L1920.51 548.58V549.58L-0.514116 549.58L-0.514115 548.58Z" fill="url(#paint19_linear_1_878)"/>
<path fill-rule="evenodd" clip-rule="evenodd" d="M-0.514121 685.724L1920.51 685.724V686.724L-0.514122 686.724L-0.514121 685.724Z" fill="url(#paint20_linear_1_878)"/>
<path fill-rule="evenodd" clip-rule="evenodd" d="M-0.514127 822.869L1920.51 822.869V823.869L-0.514128 823.869L-0.514127 822.869Z" fill="url(#paint21_linear_1_878)"/>
<path fill-rule="evenodd" clip-rule="evenodd" d="M-0.514133 960.014L1920.51 960.014V961.014L-0.514133 961.014L-0.514133 960.014Z" fill="url(#paint22_linear_1_878)"/>
</g>
<defs>
<linearGradient id="paint0_linear_1_878" x1="960" y1="0" x2="960" y2="1182.98" gradientUnits="userSpaceOnUse">
<stop stop-color="white"/>
<stop offset="1" stop-color="white" stop-opacity="0"/>
</linearGradient>
<linearGradient id="paint1_linear_1_878" x1="960" y1="0" x2="960" y2="1182.98" gradientUnits="userSpaceOnUse">
<stop stop-color="white"/>
<stop offset="1" stop-color="white" stop-opacity="0"/>
</linearGradient>
<linearGradient id="paint2_linear_1_878" x1="960" y1="0" x2="960" y2="1182.98" gradientUnits="userSpaceOnUse">
<stop stop-color="white"/>
<stop offset="1" stop-color="white" stop-opacity="0"/>
</linearGradient>
<linearGradient id="paint3_linear_1_878" x1="960" y1="0" x2="960" y2="1182.98" gradientUnits="userSpaceOnUse">
<stop stop-color="white"/>
<stop offset="1" stop-color="white" stop-opacity="0"/>
</linearGradient>
<linearGradient id="paint4_linear_1_878" x1="960" y1="0" x2="960" y2="1182.98" gradientUnits="userSpaceOnUse">
<stop stop-color="white"/>
<stop offset="1" stop-color="white" stop-opacity="0"/>
</linearGradient>
<linearGradient id="paint5_linear_1_878" x1="960" y1="0" x2="960" y2="1182.98" gradientUnits="userSpaceOnUse">
<stop stop-color="white"/>
<stop offset="1" stop-color="white" stop-opacity="0"/>
</linearGradient>
<linearGradient id="paint6_linear_1_878" x1="960" y1="0" x2="960" y2="1182.98" gradientUnits="userSpaceOnUse">
<stop stop-color="white"/>
<stop offset="1" stop-color="white" stop-opacity="0"/>
</linearGradient>
<linearGradient id="paint7_linear_1_878" x1="960" y1="0" x2="960" y2="1182.98" gradientUnits="userSpaceOnUse">
<stop stop-color="white"/>
<stop offset="1" stop-color="white" stop-opacity="0"/>
</linearGradient>
<linearGradient id="paint8_linear_1_878" x1="960" y1="0" x2="960" y2="1182.98" gradientUnits="userSpaceOnUse">
<stop stop-color="white"/>
<stop offset="1" stop-color="white" stop-opacity="0"/>
</linearGradient>
<linearGradient id="paint9_linear_1_878" x1="960" y1="0" x2="960" y2="1182.98" gradientUnits="userSpaceOnUse">
<stop stop-color="white"/>
<stop offset="1" stop-color="white" stop-opacity="0"/>
</linearGradient>
<linearGradient id="paint10_linear_1_878" x1="960" y1="0" x2="960" y2="1182.98" gradientUnits="userSpaceOnUse">
<stop stop-color="white"/>
<stop offset="1" stop-color="white" stop-opacity="0"/>
</linearGradient>
<linearGradient id="paint11_linear_1_878" x1="960" y1="0" x2="960" y2="1182.98" gradientUnits="userSpaceOnUse">
<stop stop-color="white"/>
<stop offset="1" stop-color="white" stop-opacity="0"/>
</linearGradient>
<linearGradient id="paint12_linear_1_878" x1="960" y1="0" x2="960" y2="1182.98" gradientUnits="userSpaceOnUse">
<stop stop-color="white"/>
<stop offset="1" stop-color="white" stop-opacity="0"/>
</linearGradient>
<linearGradient id="paint13_linear_1_878" x1="960" y1="0" x2="960" y2="1182.98" gradientUnits="userSpaceOnUse">
<stop stop-color="white"/>
<stop offset="1" stop-color="white" stop-opacity="0"/>
</linearGradient>
<linearGradient id="paint14_linear_1_878" x1="960" y1="0" x2="960" y2="1182.98" gradientUnits="userSpaceOnUse">
<stop stop-color="white"/>
<stop offset="1" stop-color="white" stop-opacity="0"/>
</linearGradient>
<linearGradient id="paint15_linear_1_878" x1="960" y1="0" x2="960" y2="1182.98" gradientUnits="userSpaceOnUse">
<stop stop-color="white"/>
<stop offset="1" stop-color="white" stop-opacity="0"/>
</linearGradient>
<linearGradient id="paint16_linear_1_878" x1="960" y1="0" x2="960" y2="1182.98" gradientUnits="userSpaceOnUse">
<stop stop-color="white"/>
<stop offset="1" stop-color="white" stop-opacity="0"/>
</linearGradient>
<linearGradient id="paint17_linear_1_878" x1="960" y1="0" x2="960" y2="1182.98" gradientUnits="userSpaceOnUse">
<stop stop-color="white"/>
<stop offset="1" stop-color="white" stop-opacity="0"/>
</linearGradient>
<linearGradient id="paint18_linear_1_878" x1="960" y1="0" x2="960" y2="1182.98" gradientUnits="userSpaceOnUse">
<stop stop-color="white"/>
<stop offset="1" stop-color="white" stop-opacity="0"/>
</linearGradient>
<linearGradient id="paint19_linear_1_878" x1="960" y1="0" x2="960" y2="1182.98" gradientUnits="userSpaceOnUse">
<stop stop-color="white"/>
<stop offset="1" stop-color="white" stop-opacity="0"/>
</linearGradient>
<linearGradient id="paint20_linear_1_878" x1="960" y1="0" x2="960" y2="1182.98" gradientUnits="userSpaceOnUse">
<stop stop-color="white"/>
<stop offset="1" stop-color="white" stop-opacity="0"/>
</linearGradient>
<linearGradient id="paint21_linear_1_878" x1="960" y1="0" x2="960" y2="1182.98" gradientUnits="userSpaceOnUse">
<stop stop-color="white"/>
<stop offset="1" stop-color="white" stop-opacity="0"/>
</linearGradient>
<linearGradient id="paint22_linear_1_878" x1="960" y1="0" x2="960" y2="1182.98" gradientUnits="userSpaceOnUse">
<stop stop-color="white"/>
<stop offset="1" stop-color="white" stop-opacity="0"/>
</linearGradient>
</defs>
</svg>
