<svg width="25" height="25" viewBox="0 0 25 25" fill="none" xmlns="http://www.w3.org/2000/svg">
<path d="M13.7854 0C15.1916 0.00374991 15.9054 0.0112497 16.5216 0.0287493L16.7641 0.0374991C17.0441 0.0474989 17.3203 0.0599985 17.6541 0.0749982C18.984 0.137497 19.8915 0.347492 20.6877 0.656235C21.5127 0.973727 22.2077 1.40372 22.9027 2.09745C23.5383 2.72231 24.0301 3.47815 24.3439 4.3124C24.6526 5.10863 24.8626 6.01611 24.9251 7.34733C24.9401 7.67982 24.9526 7.95606 24.9626 8.23731L24.9701 8.4798C24.9889 9.09479 24.9964 9.80852 24.9989 11.2147L25.0001 12.1472V13.7847C25.0032 14.6964 24.9936 15.6081 24.9714 16.5196L24.9639 16.7621C24.9539 17.0434 24.9414 17.3196 24.9264 17.6521C24.8639 18.9833 24.6514 19.8895 24.3439 20.687C24.031 21.5217 23.5391 22.2778 22.9027 22.902C22.2777 23.5374 21.5219 24.0291 20.6877 24.3432C19.8915 24.6519 18.984 24.8619 17.6541 24.9244C17.3575 24.9384 17.0608 24.9509 16.7641 24.9619L16.5216 24.9694C15.9054 24.9869 15.1916 24.9957 13.7854 24.9982L12.8529 24.9994H11.2167C10.3046 25.0026 9.39241 24.993 8.48052 24.9707L8.23803 24.9632C7.9413 24.9519 7.64463 24.939 7.34805 24.9244C6.01808 24.8619 5.1106 24.6519 4.31312 24.3432C3.47898 24.0299 2.72343 23.538 2.09942 22.902C1.46324 22.2773 0.970979 21.5214 0.656956 20.687C0.348213 19.8908 0.138218 18.9833 0.0757194 17.6521C0.0617933 17.3555 0.0492934 17.0588 0.0382203 16.7621L0.0319706 16.5196C0.00893622 15.6082 -0.00148132 14.6964 0.000721234 13.7847V11.2147C-0.00276739 10.303 0.00640004 9.39128 0.0282207 8.4798L0.0369704 8.23731C0.0469702 7.95606 0.0594699 7.67982 0.0744695 7.34733C0.136968 6.01611 0.346963 5.10988 0.655706 4.3124C0.969591 3.4773 1.46284 2.72122 2.10067 2.09745C2.72452 1.46181 3.47957 0.969961 4.31312 0.656235C5.1106 0.347492 6.01683 0.137497 7.34805 0.0749982C7.68054 0.0599985 7.95804 0.0474989 8.23803 0.0374991L8.48052 0.0299992C9.39199 0.0077907 10.3037 -0.00179333 11.2155 0.00124988L13.7854 0ZM12.5004 6.24985C10.8429 6.24985 9.25319 6.90832 8.08112 8.08039C6.90904 9.25247 6.25058 10.8421 6.25058 12.4997C6.25058 14.1573 6.90904 15.7469 8.08112 16.919C9.25319 18.0911 10.8429 18.7496 12.5004 18.7496C14.158 18.7496 15.7477 18.0911 16.9197 16.919C18.0918 15.7469 18.7503 14.1573 18.7503 12.4997C18.7503 10.8421 18.0918 9.25247 16.9197 8.08039C15.7477 6.90832 14.158 6.24985 12.5004 6.24985ZM12.5004 8.7498C12.9929 8.74971 13.4805 8.84663 13.9355 9.035C14.3905 9.22338 14.8039 9.49952 15.1522 9.84768C15.5005 10.1958 15.7768 10.6092 15.9653 11.0641C16.1538 11.519 16.2509 12.0066 16.251 12.4991C16.251 12.9915 16.1541 13.4792 15.9658 13.9342C15.7774 14.3892 15.5012 14.8026 15.1531 15.1509C14.8049 15.4991 14.3916 15.7754 13.9367 15.9639C13.4817 16.1525 12.9941 16.2495 12.5017 16.2496C11.5071 16.2496 10.5533 15.8545 9.85009 15.1513C9.14685 14.4481 8.75177 13.4942 8.75177 12.4997C8.75177 11.5052 9.14685 10.5514 9.85009 9.84812C10.5533 9.14487 11.5071 8.7498 12.5017 8.7498M19.064 4.3749C18.6496 4.3749 18.2522 4.53951 17.9592 4.83253C17.6662 5.12555 17.5016 5.52297 17.5016 5.93736C17.5016 6.35175 17.6662 6.74917 17.9592 7.04219C18.2522 7.33521 18.6496 7.49982 19.064 7.49982C19.4784 7.49982 19.8758 7.33521 20.1689 7.04219C20.4619 6.74917 20.6265 6.35175 20.6265 5.93736C20.6265 5.52297 20.4619 5.12555 20.1689 4.83253C19.8758 4.53951 19.4784 4.3749 19.064 4.3749Z" fill="white"/>
</svg>
