<svg width="55" height="55" viewBox="0 0 55 55" fill="none" xmlns="http://www.w3.org/2000/svg">
<circle opacity="0.25" cx="27.1289" cy="27.1289" r="27.1289" fill="#8C01DB"/>
<path d="M27.1303 22.9289C26.0164 22.9289 24.9481 23.3714 24.1605 24.1591C23.3728 24.9467 22.9303 26.015 22.9303 27.1289C22.9303 28.2428 23.3728 29.3111 24.1605 30.0988C24.9481 30.8864 26.0164 31.3289 27.1303 31.3289C28.2442 31.3289 29.3125 30.8864 30.1002 30.0988C30.8878 29.3111 31.3303 28.2428 31.3303 27.1289C31.3303 26.015 30.8878 24.9467 30.1002 24.1591C29.3125 23.3714 28.2442 22.9289 27.1303 22.9289ZM27.1303 20.1289C28.9868 20.1289 30.7673 20.8664 32.0801 22.1792C33.3928 23.4919 34.1303 25.2724 34.1303 27.1289C34.1303 28.9854 33.3928 30.7659 32.0801 32.0787C30.7673 33.3914 28.9868 34.1289 27.1303 34.1289C25.2738 34.1289 23.4933 33.3914 22.1806 32.0787C20.8678 30.7659 20.1303 28.9854 20.1303 27.1289C20.1303 25.2724 20.8678 23.4919 22.1806 22.1792C23.4933 20.8664 25.2738 20.1289 27.1303 20.1289ZM36.2303 19.7789C36.2303 20.243 36.0459 20.6882 35.7177 21.0163C35.3896 21.3445 34.9444 21.5289 34.4803 21.5289C34.0162 21.5289 33.5711 21.3445 33.2429 21.0163C32.9147 20.6882 32.7303 20.243 32.7303 19.7789C32.7303 19.3148 32.9147 18.8697 33.2429 18.5415C33.5711 18.2133 34.0162 18.0289 34.4803 18.0289C34.9444 18.0289 35.3896 18.2133 35.7177 18.5415C36.0459 18.8697 36.2303 19.3148 36.2303 19.7789ZM27.1303 15.9289C23.6667 15.9289 23.1011 15.9387 21.4897 16.0101C20.3921 16.0619 19.6557 16.2089 18.9725 16.4749C18.4008 16.6848 17.8839 17.0213 17.4605 17.4591C17.0223 17.8825 16.6854 18.3993 16.4749 18.9711C16.2089 19.6571 16.0619 20.3921 16.0115 21.4883C15.9387 23.0339 15.9289 23.5743 15.9289 27.1289C15.9289 30.5939 15.9387 31.1581 16.0101 32.7695C16.0619 33.8657 16.2089 34.6035 16.4735 35.2853C16.7115 35.8943 16.9915 36.3325 17.4563 36.7973C17.9281 37.2677 18.3663 37.5491 18.9683 37.7815C19.6599 38.0489 20.3963 38.1973 21.4883 38.2477C23.0339 38.3205 23.5743 38.3289 27.1289 38.3289C30.5939 38.3289 31.1581 38.3191 32.7695 38.2477C33.8643 38.1959 34.6007 38.0489 35.2853 37.7843C35.8565 37.5734 36.3732 37.237 36.7973 36.8001C37.2691 36.3297 37.5505 35.8915 37.7829 35.2881C38.0489 34.5993 38.1973 33.8629 38.2477 32.7681C38.3205 31.2239 38.3289 30.6821 38.3289 27.1289C38.3289 23.6653 38.3191 23.0997 38.2477 21.4883C38.1959 20.3935 38.0475 19.6543 37.7829 18.9711C37.5719 18.3999 37.2356 17.8833 36.7987 17.4591C36.3755 17.0207 35.8586 16.6837 35.2867 16.4735C34.6007 16.2075 33.8643 16.0605 32.7695 16.0101C31.2253 15.9373 30.6849 15.9289 27.1289 15.9289M27.1289 13.1289C30.9327 13.1289 31.4073 13.1429 32.9011 13.2129C34.3907 13.2829 35.4071 13.5167 36.2989 13.8639C37.2229 14.2195 38.0013 14.7011 38.7797 15.4781C39.4916 16.178 40.0424 17.0245 40.3939 17.9589C40.7397 18.8507 40.9749 19.8671 41.0449 21.3581C41.1107 22.8505 41.1289 23.3251 41.1289 27.1289C41.1289 30.9327 41.1149 31.4073 41.0449 32.8997C40.9749 34.3907 40.7397 35.4057 40.3939 36.2989C40.0434 37.2338 39.4924 38.0805 38.7797 38.7797C38.0797 39.4914 37.2331 40.0422 36.2989 40.3939C35.4071 40.7397 34.3907 40.9749 32.9011 41.0449C31.4073 41.1107 30.9327 41.1289 27.1289 41.1289C23.3251 41.1289 22.8505 41.1149 21.3567 41.0449C19.8671 40.9749 18.8521 40.7397 17.9589 40.3939C17.0242 40.0432 16.1774 39.4922 15.4781 38.7797C14.7661 38.0799 14.2153 37.2333 13.8639 36.2989C13.5167 35.4071 13.2829 34.3907 13.2129 32.8997C13.1457 31.4073 13.1289 30.9327 13.1289 27.1289C13.1289 23.3251 13.1429 22.8505 13.2129 21.3581C13.2829 19.8671 13.5167 18.8521 13.8639 17.9589C14.2142 17.024 14.7652 16.1772 15.4781 15.4781C16.1776 14.7658 17.0243 14.2149 17.9589 13.8639C18.8507 13.5167 19.8657 13.2829 21.3567 13.2129C22.8519 13.1471 23.3265 13.1289 27.1303 13.1289" fill="white"/>
</svg>
