<svg width="47" height="41" viewBox="0 0 47 41" fill="none" xmlns="http://www.w3.org/2000/svg">
<path fill-rule="evenodd" clip-rule="evenodd" d="M20.8104 3.13458C21.5959 1.75261 21.9643 0.681708 21.9643 0H24.8929C24.8929 1.48544 24.1875 3.11955 23.3564 4.58172C22.4953 6.09678 21.3639 7.65508 20.2549 9.04635C17.3652 12.6706 13.903 15.8539 9.91223 18.2919C9.50367 18.5414 9.08055 18.791 8.64703 19.0357L46.8571 19.0357V21.9643L8.64702 21.9643C9.08055 22.209 9.5034 22.4585 9.91196 22.7079C13.9028 25.146 17.3651 28.3292 20.2548 31.9535C21.3638 33.3448 22.4953 34.9032 23.3564 36.4183C24.1875 37.8804 24.8929 39.5146 24.8929 41H21.9643C21.9643 40.3183 21.5959 39.2474 20.8104 37.8654C20.055 36.5364 19.027 35.1115 17.965 33.7792C15.2632 30.3906 12.0521 27.4472 8.38575 25.2074C6.99303 24.357 5.47923 23.5414 3.99865 22.9421C2.50176 22.3362 1.13147 21.9897 0 21.9897V19.0103C1.13147 19.0103 2.50176 18.6638 3.99865 18.0579C5.47923 17.4586 6.99303 16.643 8.38575 15.7926C12.0521 13.5528 15.2632 10.6093 17.965 7.22075C19.027 5.88849 20.055 4.4636 20.8104 3.13458Z" fill="#C1C1C1"/>
</svg>
