<svg width="184" height="44" viewBox="0 0 184 44" fill="none" xmlns="http://www.w3.org/2000/svg">
<path d="M32.0053 33.8505H25.9091V12.4334L25.877 12.4855C24.8549 14.2095 23.3974 15.6343 21.6506 16.617C19.9039 17.5997 17.9294 18.1056 15.9253 18.0841C13.9213 18.0626 11.9581 17.5143 10.2329 16.4943C8.50766 15.4743 7.08106 14.0185 6.09626 12.273V33.8505H0V1.76496H7.01872L15.9225 17.6874L25.2273 1.76496H32.0053V33.8505Z" fill="url(#paint0_linear_1_1045)"/>
<path d="M54.4693 10.6286C54.8949 10.629 55.3139 10.7326 55.6906 10.9305C56.0673 11.1284 56.3904 11.4147 56.6321 11.7649C56.8739 12.1151 57.0271 12.5187 57.0786 12.9411C57.1301 13.3635 57.0784 13.7921 56.9279 14.1901L47.8477 38.1821C47.0696 40.2382 46.0536 41.7222 44.7995 42.6339C43.4881 43.5603 41.9127 44.0386 40.3076 43.9976C40.0125 43.9958 39.7178 43.9757 39.4252 43.9374C39.1138 43.8993 38.8056 43.839 38.5028 43.7569L36.6378 38.543L37.9814 38.904C38.4268 39.0198 38.8848 39.0804 39.345 39.0845C40.2134 39.0935 41.0696 38.8794 41.8316 38.4628C42.5776 38.0617 43.1552 37.2797 43.5562 36.1567L44.2701 34.0791C44.3302 33.9202 44.3302 33.7448 44.2701 33.5858L36.8183 14.2703C36.6614 13.8656 36.6054 13.4287 36.6551 12.9975C36.7048 12.5663 36.8587 12.1537 37.1034 11.7952C37.3482 11.4367 37.6765 11.1432 38.0601 10.94C38.4436 10.7367 38.8708 10.6299 39.3049 10.6286C40.007 10.6272 40.6922 10.8431 41.2667 11.2467C41.8412 11.6502 42.2767 12.2217 42.5135 12.8826L47.0455 25.5484L51.2889 12.9147C51.513 12.2487 51.9405 11.6698 52.5111 11.2597C53.0817 10.8496 53.7666 10.6288 54.4693 10.6286Z" fill="url(#paint1_linear_1_1045)"/>
<path d="M83.1817 22.2997C83.1887 23.8876 82.9089 25.4637 82.3555 26.9521C81.8344 28.3754 81.0508 29.6882 80.0453 30.8224C79.0555 31.9329 77.8525 32.833 76.5079 33.4695C75.1001 34.133 73.5602 34.4689 72.0039 34.4521C71.036 34.4596 70.0728 34.3175 69.1483 34.031C68.2436 33.7376 67.3997 33.2823 66.6577 32.6874L66.6857 41.0056C66.6873 41.3887 66.613 41.7684 66.4669 42.1227C66.3209 42.4769 66.1062 42.7987 65.835 43.0695C65.5639 43.3402 65.2418 43.5546 64.8874 43.7001C64.5329 43.8456 64.1531 43.9195 63.77 43.9173C62.9998 43.9173 62.2613 43.6114 61.7167 43.0669C61.1721 42.5223 60.8662 41.7837 60.8662 41.0136V11.8719C60.8662 11.5421 60.9972 11.2259 61.2304 10.9927C61.4635 10.7596 61.7798 10.6286 62.1095 10.6286H65.4785C65.8011 10.6294 66.1109 10.7552 66.3427 10.9796C66.5745 11.2039 66.7104 11.5094 66.7218 11.8318C67.4382 11.271 68.2453 10.8369 69.1082 10.5484C70.0434 10.2251 71.0265 10.0624 72.0159 10.0671C73.4459 10.0697 74.8573 10.3917 76.147 11.0096C77.4874 11.6423 78.6979 12.5196 79.7165 13.5965C80.7795 14.7242 81.6288 16.0356 82.2232 17.4668C82.8648 18.9968 83.1908 20.6406 83.1817 22.2997ZM77.286 22.3398C77.3009 21.3296 77.1366 20.3247 76.8007 19.3719C76.5064 18.5346 76.0483 17.7643 75.4531 17.1058C74.8825 16.4801 74.1815 15.9872 73.3996 15.662C72.5639 15.3196 71.6677 15.1491 70.7646 15.1607C70.0437 15.1854 69.3309 15.3207 68.651 15.5617C67.9252 15.7761 67.2453 16.1229 66.6456 16.5845V27.674C67.7793 28.773 69.294 29.3909 70.8729 29.3986C71.7517 29.4061 72.6221 29.2284 73.4277 28.8772C74.2038 28.5427 74.8977 28.0432 75.4611 27.4133C76.043 26.7563 76.4937 25.9939 76.7887 25.1673C77.1231 24.2624 77.2916 23.3046 77.286 22.3398Z" fill="url(#paint2_linear_1_1045)"/>
<path d="M110.735 22.2596C110.749 23.913 110.421 25.5513 109.773 27.0724C109.156 28.5197 108.256 29.8288 107.126 30.9227C105.981 32.0181 104.641 32.8888 103.175 33.4895C101.645 34.1296 100.001 34.4569 98.3423 34.4521C96.6909 34.4648 95.054 34.1443 93.5294 33.5096C92.0673 32.9039 90.7335 32.0261 89.599 30.9227C88.4463 29.7952 87.5326 28.4469 86.9125 26.9585C86.2923 25.4701 85.9783 23.872 85.9893 22.2596C85.978 20.6238 86.3128 19.0041 86.972 17.5069C87.6085 16.0599 88.5135 14.7467 89.6391 13.6366C91.9584 11.3518 95.0866 10.076 98.3423 10.0871C100 10.076 101.643 10.3964 103.175 11.0297C104.641 11.6304 105.981 12.5011 107.126 13.5965C108.259 14.6955 109.16 16.0118 109.773 17.4668C110.417 18.9821 110.745 20.6131 110.735 22.2596ZM104.96 22.2596C104.975 20.4022 104.281 18.6091 103.019 17.2462C102.427 16.6097 101.714 16.0983 100.921 15.7422C100.115 15.3852 99.2437 15.2007 98.3623 15.2007C97.481 15.2007 96.6093 15.3852 95.8035 15.7422C95.0096 16.0982 94.295 16.6096 93.7019 17.2462C92.4434 18.6125 91.7448 20.4021 91.7448 22.2596C91.7448 24.1171 92.4434 25.9067 93.7019 27.273C94.295 27.9096 95.0096 28.421 95.8035 28.777C96.6093 29.134 97.481 29.3184 98.3623 29.3184C99.2437 29.3184 100.115 29.134 100.921 28.777C101.714 28.4209 102.427 27.9095 103.019 27.273C104.281 25.9101 104.975 24.117 104.96 22.2596Z" fill="url(#paint3_linear_1_1045)"/>
<path d="M130.989 13.0751L127.901 17.9681C127.342 17.3646 126.716 16.8264 126.036 16.3639C125.439 15.9153 124.717 15.6631 123.971 15.6419C123.55 15.6519 123.135 15.7403 122.747 15.9026C122.282 16.0987 121.865 16.3928 121.524 16.7649C121.095 17.2308 120.762 17.7757 120.541 18.3692C120.255 19.1383 120.119 19.9552 120.14 20.7756V30.9628C120.14 31.7287 119.836 32.4632 119.295 33.0047C118.753 33.5462 118.018 33.8505 117.253 33.8505C116.487 33.8505 115.752 33.5462 115.211 33.0047C114.669 32.4632 114.365 31.7287 114.365 30.9628V13.1553C114.365 12.4958 114.627 11.8633 115.093 11.397C115.56 10.9307 116.192 10.6687 116.852 10.6687H117.654C118.313 10.6697 118.945 10.9321 119.411 11.3982C119.877 11.8643 120.139 12.4961 120.14 13.1553C120.75 12.248 121.534 11.4709 122.446 10.8692C123.292 10.3343 124.274 10.0557 125.274 10.0671C126.323 10.0694 127.353 10.3459 128.262 10.8692C129.277 11.4624 130.197 12.2062 130.989 13.0751Z" fill="url(#paint4_linear_1_1045)"/>
<path d="M145.949 33.3291C145.318 33.7193 144.627 34.0038 143.904 34.1714C143.142 34.3573 142.361 34.4515 141.578 34.4521C140.408 34.481 139.242 34.3115 138.128 33.9508C137.25 33.657 136.471 33.1219 135.882 32.4067C135.28 31.6278 134.862 30.7229 134.659 29.7596C134.386 28.522 134.258 27.2568 134.278 25.9895V15.8425H131.23V13.2355C133.029 12.5139 134.601 11.3227 135.782 9.78633C136.945 8.26227 137.741 6.28366 138.169 3.8505H140.054V10.6286H145.909V15.8425H140.054V26.3906C140.037 26.8814 140.112 27.371 140.274 27.8345C140.394 28.1709 140.594 28.4735 140.856 28.7168C141.091 28.9274 141.373 29.0786 141.678 29.158C141.999 29.2401 142.329 29.2806 142.66 29.2783C143.216 29.264 143.768 29.1832 144.305 29.0377C144.906 28.8959 145.468 28.6219 145.949 28.2355V33.3291Z" fill="url(#paint5_linear_1_1045)"/>
<path d="M162.313 5.85586C161.833 5.67344 161.336 5.53909 160.829 5.45479C160.364 5.38474 159.895 5.35122 159.425 5.35452C158.302 5.35452 157.504 5.60719 157.039 6.11655C156.573 6.62591 156.337 7.54837 156.337 8.88393V10.7289H159.987V15.7623H156.337V30.9628C156.337 31.7287 156.033 32.4632 155.491 33.0047C154.949 33.5463 154.215 33.8505 153.449 33.8505C152.683 33.8505 151.949 33.5463 151.407 33.0047C150.866 32.4632 150.561 31.7287 150.561 30.9628V15.7623H147.754V10.7088H150.561V8.94409C150.561 6.02965 151.106 3.8104 152.194 2.28634C153.282 0.762275 155.198 0.000243178 157.941 0.000243178C159.414 -0.00771628 160.881 0.179748 162.305 0.55773L162.313 5.85586Z" fill="url(#paint6_linear_1_1045)"/>
<path d="M180.979 10.6286C181.443 10.6291 181.9 10.7422 182.311 10.9582C182.722 11.1742 183.075 11.4866 183.339 11.8687C183.602 12.2508 183.77 12.6912 183.826 13.152C183.882 13.6129 183.826 14.0806 183.662 14.5149L174.706 38.178C173.928 40.2342 172.912 41.7182 171.658 42.6299C170.346 43.5563 168.771 44.0345 167.166 43.9936C166.871 43.9918 166.576 43.9717 166.283 43.9334C165.972 43.8953 165.664 43.835 165.361 43.7529L163.492 38.539L164.84 38.904C165.285 39.0198 165.743 39.0804 166.203 39.0845C167.072 39.0935 167.928 38.8794 168.69 38.4628C169.436 38.0617 170.013 37.2797 170.414 36.1567L171.217 33.8305L163.801 14.5912C163.63 14.15 163.569 13.6739 163.624 13.204C163.679 12.7342 163.847 12.2847 164.114 11.8945C164.382 11.5043 164.74 11.1851 165.159 10.9645C165.577 10.7439 166.043 10.6286 166.516 10.6286C167.116 10.63 167.7 10.8165 168.19 11.1625C168.679 11.5085 169.05 11.9971 169.251 12.5617L173.904 25.5484L178.259 12.5858C178.45 12.0157 178.815 11.52 179.303 11.1688C179.791 10.8176 180.377 10.6286 180.979 10.6286Z" fill="url(#paint7_linear_1_1045)"/>
<defs>
<linearGradient id="paint0_linear_1_1045" x1="91.9235" y1="0" x2="91.9235" y2="44" gradientUnits="userSpaceOnUse">
<stop stop-color="#8C01DB"/>
<stop offset="1" stop-color="#FA614F"/>
</linearGradient>
<linearGradient id="paint1_linear_1_1045" x1="91.9235" y1="0" x2="91.9235" y2="44" gradientUnits="userSpaceOnUse">
<stop stop-color="#8C01DB"/>
<stop offset="1" stop-color="#FA614F"/>
</linearGradient>
<linearGradient id="paint2_linear_1_1045" x1="91.9235" y1="0" x2="91.9235" y2="44" gradientUnits="userSpaceOnUse">
<stop stop-color="#8C01DB"/>
<stop offset="1" stop-color="#FA614F"/>
</linearGradient>
<linearGradient id="paint3_linear_1_1045" x1="91.9235" y1="0" x2="91.9235" y2="44" gradientUnits="userSpaceOnUse">
<stop stop-color="#8C01DB"/>
<stop offset="1" stop-color="#FA614F"/>
</linearGradient>
<linearGradient id="paint4_linear_1_1045" x1="91.9235" y1="0" x2="91.9235" y2="44" gradientUnits="userSpaceOnUse">
<stop stop-color="#8C01DB"/>
<stop offset="1" stop-color="#FA614F"/>
</linearGradient>
<linearGradient id="paint5_linear_1_1045" x1="91.9235" y1="0" x2="91.9235" y2="44" gradientUnits="userSpaceOnUse">
<stop stop-color="#8C01DB"/>
<stop offset="1" stop-color="#FA614F"/>
</linearGradient>
<linearGradient id="paint6_linear_1_1045" x1="91.9235" y1="0" x2="91.9235" y2="44" gradientUnits="userSpaceOnUse">
<stop stop-color="#8C01DB"/>
<stop offset="1" stop-color="#FA614F"/>
</linearGradient>
<linearGradient id="paint7_linear_1_1045" x1="91.9235" y1="0" x2="91.9235" y2="44" gradientUnits="userSpaceOnUse">
<stop stop-color="#8C01DB"/>
<stop offset="1" stop-color="#FA614F"/>
</linearGradient>
</defs>
</svg>
