<svg width="26" height="36" viewBox="0 0 26 36" fill="none" xmlns="http://www.w3.org/2000/svg">
<path d="M4.25127 0.789867L6.18989 0.17066C8.00431 -0.408947 9.94473 0.528864 10.7223 2.36129L12.2704 6.01173C12.9454 7.60115 12.571 9.47137 11.3452 10.6342L7.93771 13.8706C8.14831 15.8074 8.79812 17.7137 9.88894 19.5893C10.9254 21.404 12.3155 22.9924 13.9768 24.2603L18.0736 22.8923C19.6252 22.3757 21.3155 22.9715 22.2677 24.3701L24.4853 27.6282C25.5941 29.2554 25.3943 31.4982 24.0209 32.877L22.5485 34.3549C21.0833 35.8255 18.9916 36.3601 17.0548 35.7553C12.4846 34.3297 8.28332 30.0978 4.44927 23.0597C0.609826 16.0108 -0.743789 10.0276 0.384824 5.11712C0.860029 3.05069 2.33245 1.40367 4.25487 0.789867" fill="#FA614F"/>
</svg>
