<svg width="30" height="36" viewBox="0 0 30 36" fill="none" xmlns="http://www.w3.org/2000/svg">
<path d="M8.93491 15.173C8.93491 13.6343 9.54613 12.1587 10.6341 11.0707C11.7221 9.98276 13.1977 9.37154 14.7363 9.37154C16.275 9.37154 17.7506 9.98276 18.8386 11.0707C19.9265 12.1587 20.5378 13.6343 20.5378 15.173C20.5378 16.7116 19.9265 18.1872 18.8386 19.2752C17.7506 20.3632 16.275 20.9744 14.7363 20.9744C13.1977 20.9744 11.7221 20.3632 10.6341 19.2752C9.54613 18.1872 8.93491 16.7116 8.93491 15.173Z" fill="#FA614F"/>
<path fill-rule="evenodd" clip-rule="evenodd" d="M0.0524973 13.1683C0.348615 9.57964 1.98328 6.23347 4.63201 3.79405C7.28075 1.35464 10.7499 0.000347383 14.3508 0H15.1219C18.7228 0.000347383 22.192 1.35464 24.8407 3.79405C27.4894 6.23347 29.1241 9.57964 29.4202 13.1683C29.751 17.1749 28.514 21.1534 25.9697 24.266L17.4139 34.73C17.0897 35.1269 16.6812 35.4468 16.2181 35.6664C15.755 35.8861 15.2489 36 14.7364 36C14.2238 36 13.7177 35.8861 13.2546 35.6664C12.7915 35.4468 12.3831 35.1269 12.0588 34.73L3.50479 24.266C0.95985 21.1537 -0.277817 17.1751 0.0524973 13.1683ZM14.7364 6.69395C12.4876 6.69395 10.3309 7.58728 8.74079 9.1774C7.15067 10.7675 6.25735 12.9242 6.25735 15.173C6.25735 17.4217 7.15067 19.5784 8.74079 21.1685C10.3309 22.7586 12.4876 23.652 14.7364 23.652C16.9851 23.652 19.1418 22.7586 20.7319 21.1685C22.322 19.5784 23.2154 17.4217 23.2154 15.173C23.2154 12.9242 22.322 10.7675 20.7319 9.1774C19.1418 7.58728 16.9851 6.69395 14.7364 6.69395Z" fill="#FA614F"/>
</svg>
