<svg width="47" height="41" viewBox="0 0 47 41" fill="none" xmlns="http://www.w3.org/2000/svg">
<path fill-rule="evenodd" clip-rule="evenodd" d="M26.0468 3.13458C25.2613 1.75261 24.8929 0.681708 24.8929 0H21.9643C21.9643 1.48544 22.6697 3.11955 23.5008 4.58172C24.3619 6.09678 25.4932 7.65508 26.6023 9.04635C29.492 12.6706 32.9541 15.8539 36.9449 18.2919C37.3535 18.5414 37.7766 18.791 38.2101 19.0357L3.8147e-05 19.0357V21.9643L38.2102 21.9643C37.7766 22.209 37.3538 22.4585 36.9452 22.7079C32.9544 25.146 29.4921 28.3292 26.6024 31.9535C25.4933 33.3448 24.3619 34.9032 23.5008 36.4183C22.6697 37.8804 21.9643 39.5146 21.9643 41H24.8929C24.8929 40.3183 25.2613 39.2474 26.0468 37.8654C26.8022 36.5364 27.8302 35.1115 28.8922 33.7792C31.594 30.3906 34.8051 27.4472 38.4714 25.2074C39.8641 24.357 41.378 23.5414 42.8585 22.9421C44.3554 22.3362 45.7257 21.9897 46.8572 21.9897V19.0103C45.7257 19.0103 44.3554 18.6638 42.8585 18.0579C41.378 17.4586 39.8641 16.643 38.4714 15.7926C34.8051 13.5528 31.594 10.6093 28.8922 7.22075C27.8302 5.88849 26.8022 4.4636 26.0468 3.13458Z" fill="#8C01DB"/>
</svg>
