<svg width="1474" height="570" viewBox="0 0 1474 570" fill="none" xmlns="http://www.w3.org/2000/svg">
<path d="M809.656 80.5917C807.815 77.3784 805.689 75.1389 802.612 73.0925C801.273 72.2019 800.024 74.3595 801.355 75.2431C802.593 76.0641 803.642 76.9338 804.575 77.8952C787.957 70.1055 769.361 63.0467 751.783 72.1339C744.564 75.8654 738.395 81.8296 734.588 89.0232C729.735 98.1965 729.535 108.68 727.618 118.662C723.545 139.873 706.75 155.548 685.786 160.09C662.009 165.24 637.763 155.083 620.007 139.577C619.503 139.137 618.763 139.866 619.268 140.316C646.678 164.748 691.533 174.33 718.393 143.435C723.866 137.141 727.518 129.74 729.355 121.62C731.875 110.482 731.555 98.5744 737.597 88.4842C743.211 79.1094 753.168 72.295 763.964 70.564C777.733 68.3564 791.122 74.2219 803.332 80.0166C799.421 81.7365 795.434 82.9452 791.162 83.6773C789.805 83.9093 790.103 86.2711 791.491 86.1071C791.601 86.0946 791.709 86.0738 791.819 86.0613C791.83 86.0599 791.838 86.0585 791.85 86.0557C797.668 85.3458 803.307 84.1649 808.913 82.4186C809.679 82.1769 810.064 81.3058 809.656 80.5917Z" fill="white"/>
<path d="M422.498 569.382C422.326 569.384 422.155 569.351 421.995 569.286C421.835 569.222 421.689 569.126 421.567 569.004L405.382 552.823C405.256 552.701 405.156 552.554 405.087 552.392C405.019 552.23 404.984 552.056 404.984 551.88C404.984 551.704 405.019 551.53 405.087 551.368C405.156 551.206 405.256 551.06 405.382 550.937L421.567 534.752C421.819 534.514 422.153 534.382 422.5 534.382C422.847 534.382 423.181 534.514 423.434 534.752L439.615 550.937C439.741 551.06 439.841 551.206 439.909 551.368C439.978 551.53 440.013 551.704 440.013 551.88C440.013 552.056 439.978 552.23 439.909 552.392C439.841 552.554 439.741 552.701 439.615 552.823L423.434 569.004C423.184 569.249 422.848 569.385 422.498 569.382ZM408.185 551.877L422.498 566.194L436.835 551.877L422.498 537.563L408.185 551.877Z" fill="#8C01DB"/>
<path d="M6.82099 101.43C6.65196 101.431 6.48423 101.4 6.32746 101.337C6.17068 101.273 6.02796 101.18 5.9075 101.061C4.88781 100.042 3.97907 98.9168 3.19651 97.7056C3.00946 97.4202 2.9432 97.0723 3.01224 96.7381C3.08129 96.4039 3.28001 96.1108 3.56485 95.9228C3.85026 95.7358 4.19818 95.6695 4.53236 95.7386C4.86654 95.8076 5.15971 96.0064 5.34762 96.2912C6.02975 97.3551 6.82375 98.343 7.71606 99.2379C7.83903 99.3577 7.93676 99.5009 8.00349 99.6591C8.07022 99.8172 8.1046 99.9871 8.1046 100.159C8.1046 100.33 8.07022 100.5 8.00349 100.659C7.93676 100.817 7.83903 100.96 7.71606 101.08C7.4748 101.309 7.15358 101.434 6.82099 101.43ZM2.4635 94.6705C2.20094 94.6707 1.94455 94.5908 1.72865 94.4414C1.51275 94.292 1.34761 94.0802 1.25534 93.8343C0.748154 92.4821 0.38757 91.0792 0.179782 89.65C0.153795 89.4804 0.161897 89.3074 0.203615 89.1411C0.245334 88.9747 0.319829 88.8183 0.422737 88.6811C0.525646 88.5439 0.654897 88.4286 0.802925 88.342C0.950952 88.2554 1.11478 88.1991 1.28481 88.1766C1.45441 88.1501 1.6276 88.1578 1.79416 88.1993C1.96072 88.2409 2.11729 88.3153 2.25461 88.4183C2.39194 88.5213 2.50725 88.6507 2.59373 88.799C2.68022 88.9473 2.73614 89.1114 2.75818 89.2816C2.94277 90.5279 3.25759 91.7513 3.69745 92.9319C3.81889 93.25 3.80959 93.6032 3.67157 93.9144C3.53355 94.2256 3.27803 94.4696 2.96076 94.5931C2.8017 94.6513 2.63273 94.6776 2.4635 94.6705ZM1.29586 86.729H1.20377C1.03467 86.7178 0.869433 86.6733 0.717528 86.5982C0.565622 86.523 0.430025 86.4187 0.318495 86.2911C0.206965 86.1634 0.12169 86.0151 0.0675498 85.8545C0.0134099 85.6939 -0.00853327 85.5242 0.00297642 85.3551C0.0965475 83.916 0.343509 82.4911 0.739661 81.1044C0.785474 80.9415 0.863094 80.7893 0.96804 80.6565C1.07299 80.5238 1.20318 80.4131 1.35112 80.3309C1.49905 80.2487 1.66179 80.1967 1.82996 80.1777C1.99812 80.1587 2.16838 80.1733 2.3309 80.2204C2.49395 80.2666 2.64625 80.3446 2.77905 80.4499C2.91184 80.5553 3.0225 80.6858 3.10466 80.834C3.18682 80.9822 3.23885 81.1452 3.25778 81.3137C3.2767 81.4821 3.26214 81.6526 3.21492 81.8153C2.86848 83.0266 2.65118 84.2712 2.56664 85.5282C2.54445 85.8514 2.40138 86.1545 2.1659 86.377C1.93043 86.5995 1.61981 86.7252 1.29586 86.729ZM3.50591 78.9938C3.29366 78.9932 3.08486 78.9401 2.89815 78.8391C2.74889 78.7591 2.61686 78.6505 2.50961 78.5194C2.40235 78.3883 2.32197 78.2374 2.27306 78.0753C2.22414 77.9132 2.20765 77.743 2.22453 77.5745C2.24141 77.4059 2.29132 77.2424 2.37142 77.0932C3.0559 75.8221 3.87461 74.628 4.81353 73.5313C5.0361 73.2715 5.35259 73.1105 5.69365 73.0836C6.03472 73.0566 6.37255 73.166 6.63314 73.3877C6.76195 73.4979 6.86777 73.6324 6.94453 73.7835C7.02129 73.9346 7.0675 74.0994 7.0805 74.2684C7.0935 74.4375 7.07304 74.6074 7.0203 74.7685C6.96755 74.9296 6.88355 75.0787 6.77311 75.2073C5.95472 76.1648 5.241 77.2069 4.64409 78.3161C4.53373 78.5201 4.37052 78.6907 4.17156 78.8099C3.9726 78.9292 3.74523 78.9927 3.51328 78.9938H3.50591ZM33.71 74.5737C33.3688 74.5763 33.0405 74.4439 32.7965 74.2054C32.1386 73.5354 31.4279 72.9195 30.6712 72.3637C30.5342 72.264 30.4183 72.1384 30.33 71.994C30.2416 71.8495 30.1826 71.6891 30.1562 71.5218C30.1299 71.3546 30.1368 71.1838 30.1765 71.0192C30.2161 70.8545 30.2879 70.6994 30.3875 70.5625C30.4872 70.4256 30.6128 70.3096 30.7572 70.2213C30.9017 70.1329 31.0621 70.0739 31.2294 70.0476C31.3966 70.0212 31.5674 70.0281 31.732 70.0678C31.8967 70.1075 32.0518 70.1792 32.1887 70.2789C33.0532 70.9067 33.8662 71.6026 34.6198 72.36C34.7399 72.4795 34.8353 72.6215 34.9004 72.778C34.9655 72.9344 34.999 73.1022 34.999 73.2716C34.999 73.4411 34.9655 73.6089 34.9004 73.7653C34.8353 73.9218 34.7399 74.0638 34.6198 74.1833C34.4985 74.3015 34.355 74.3946 34.1976 74.4572C34.0402 74.5197 33.872 74.5506 33.7026 74.5479L33.71 74.5737ZM8.74742 72.8941C8.54592 72.893 8.34752 72.8444 8.16833 72.7522C7.98913 72.66 7.83418 72.5269 7.71606 72.3637C7.61293 72.2292 7.53731 72.0758 7.49352 71.9121C7.44974 71.7484 7.43864 71.5777 7.46088 71.4098C7.48311 71.2418 7.53824 71.0799 7.62311 70.9332C7.70798 70.7866 7.82093 70.6581 7.95549 70.5551C9.09954 69.6788 10.3344 68.928 11.6389 68.3156C11.792 68.2435 11.9577 68.2023 12.1267 68.1943C12.2957 68.1864 12.4647 68.2119 12.6238 68.2694C12.7829 68.3269 12.9291 68.4152 13.054 68.5293C13.1789 68.6435 13.2801 68.7811 13.3517 68.9344C13.4965 69.2442 13.5127 69.5987 13.3967 69.9204C13.2808 70.2421 13.0421 70.5048 12.7329 70.6509C11.5919 71.1847 10.5114 71.8392 9.50989 72.6031C9.28944 72.7738 9.01886 72.867 8.74006 72.8683L8.74742 72.8941ZM27.9233 70.6104C27.7458 70.6112 27.5702 70.5748 27.4076 70.5036C26.253 69.9969 25.048 69.6141 23.8126 69.3617C23.4783 69.2933 23.1847 69.0952 22.9962 68.8107C22.8077 68.5263 22.7397 68.1787 22.807 67.8441C22.8754 67.5088 23.0739 67.2143 23.3591 67.0251C23.6443 66.8359 23.9928 66.7675 24.3283 66.8349C25.7424 67.1229 27.1217 67.5613 28.4427 68.1425C28.7557 68.2798 29.0015 68.5358 29.1258 68.8542C29.2501 69.1727 29.2429 69.5274 29.1057 69.8405C29.0001 70.0659 28.8316 70.256 28.6205 70.388C28.4095 70.52 28.1648 70.5883 27.916 70.5846L27.9233 70.6104ZM16.0259 69.4832C15.7342 69.4824 15.4513 69.383 15.2233 69.2011C14.9953 69.0192 14.8355 68.7656 14.7698 68.4814C14.6949 68.1478 14.7552 67.7982 14.9374 67.5089C15.1197 67.2197 15.409 67.0144 15.7422 66.938C17.1495 66.618 18.5867 66.4476 20.0297 66.4297C20.3691 66.4297 20.6948 66.5635 20.9362 66.8021C21.1775 67.0407 21.3151 67.3648 21.3189 67.7042C21.3209 67.8735 21.2895 68.0415 21.2265 68.1986C21.1635 68.3558 21.0701 68.499 20.9518 68.6201C20.8334 68.7412 20.6924 68.8378 20.5367 68.9043C20.381 68.9709 20.2138 69.0062 20.0445 69.0081C18.7873 69.0119 17.5341 69.149 16.3058 69.4169C16.2119 69.4413 16.1155 69.4549 16.0185 69.4575L16.0259 69.4832Z" fill="#FA614F"/>
<path d="M1465.46 35H1444.49C1444.2 34.9995 1443.92 34.9085 1443.69 34.7401C1443.46 34.5717 1443.29 34.3344 1443.2 34.0621L1436.72 14.1065C1436.63 13.8337 1436.63 13.5399 1436.72 13.2671C1436.81 12.9942 1436.98 12.7563 1437.21 12.5873L1454.18 0.258915C1454.41 0.0906143 1454.69 0 1454.98 0C1455.26 0 1455.54 0.0906143 1455.77 0.258915L1472.73 12.595C1472.97 12.764 1473.14 13.002 1473.23 13.2748C1473.32 13.5477 1473.31 13.8415 1473.23 14.1143L1466.75 34.0621C1466.66 34.3335 1466.49 34.5702 1466.26 34.7386C1466.03 34.907 1465.75 34.9984 1465.46 35ZM1445.48 32.2871H1464.47L1470.34 14.2112L1454.96 3.04162L1439.59 14.2112L1445.48 32.2871Z" fill="#8C01DB"/>
</svg>
