<svg width="88" height="80" viewBox="0 0 88 80" fill="none" xmlns="http://www.w3.org/2000/svg">
<g opacity="0.5">
<path d="M62.1729 79.8254C62.0131 79.8993 61.8316 79.9313 61.6507 79.9157L18.9306 76.0352C18.566 76.003 18.2477 75.778 18.0939 75.4453L0.0949052 36.51C-0.0588885 36.1773 -0.0240877 35.789 0.187524 35.4904L24.9077 0.433661C25.1175 0.135933 25.4744 -0.0290302 25.837 0.00406904L68.5553 3.88538C68.9198 3.91762 69.2382 4.14266 69.3919 4.47535L87.391 43.4107C87.5447 43.7433 87.5099 44.1316 87.2983 44.4302L62.58 79.4861C62.4755 79.6359 62.3327 79.7515 62.1729 79.8254ZM19.705 74.0508L61.2476 77.8237L85.2849 43.7346L67.7817 5.87166L26.241 2.09789L2.20179 36.1879L19.705 74.0508Z" fill="url(#paint0_linear_1_559)"/>
<path d="M86.9317 44.756C86.9178 44.7601 86.9066 44.7653 86.8945 44.7732L19.4579 75.9478C19.1252 76.1016 18.7369 76.0667 18.4384 75.8551C18.1398 75.6435 17.9765 75.2904 18.0088 74.9258L24.7281 0.934653C24.7945 0.204701 25.7405 -0.232621 26.3376 0.190603L86.8513 42.8645C87.0986 42.9554 87.3119 43.1388 87.4305 43.3952C87.6685 43.9101 87.4447 44.5189 86.9317 44.756ZM20.2082 73.3451L84.4258 43.6587L26.6087 2.885L20.2082 73.3451Z" fill="url(#paint1_linear_1_559)"/>
<path d="M56.4799 22.7097L22.4884 38.4233L52.7457 59.4318L56.4799 22.7097Z" fill="url(#paint2_linear_1_559)"/>
<path d="M56.6912 23.1604C56.5388 23.2308 56.3522 23.2223 56.2041 23.1216C55.9752 22.968 55.9151 22.6575 56.0687 22.4285L68.051 4.62703C68.2045 4.4027 68.5162 4.3353 68.7441 4.49161C68.973 4.64521 69.0331 4.9558 68.8795 5.1847L56.8972 22.9862C56.8435 23.0651 56.773 23.1226 56.6912 23.1604Z" fill="url(#paint3_linear_1_559)"/>
<path d="M22.6989 38.8782C22.619 38.9152 22.5296 38.9317 22.4346 38.9214L0.971941 36.5809C0.697062 36.5523 0.499403 36.3053 0.530697 36.0315C0.561992 35.7576 0.811691 35.561 1.08113 35.5875L22.5439 37.928C22.8188 37.9566 23.0164 38.2036 22.986 38.4793C22.9658 38.6601 22.8532 38.8069 22.6989 38.8782Z" fill="url(#paint4_linear_1_559)"/>
<path d="M61.9554 79.3483C61.7045 79.4643 61.4083 79.3554 61.2923 79.1045L52.2924 59.6359C52.1764 59.3849 52.2853 59.0887 52.5362 58.9728C52.7871 58.8568 53.0834 58.9657 53.1994 59.2166L62.1993 78.6852C62.3135 78.9369 62.2045 79.2332 61.9554 79.3483Z" fill="url(#paint5_linear_1_559)"/>
</g>
<defs>
<linearGradient id="paint0_linear_1_559" x1="91.5681" y1="99.0369" x2="-13.2127" y2="66.6992" gradientUnits="userSpaceOnUse">
<stop stop-color="#8C01DB"/>
<stop offset="1" stop-color="#FA614F"/>
</linearGradient>
<linearGradient id="paint1_linear_1_559" x1="91.5681" y1="99.0369" x2="-13.2127" y2="66.6992" gradientUnits="userSpaceOnUse">
<stop stop-color="#8C01DB"/>
<stop offset="1" stop-color="#FA614F"/>
</linearGradient>
<linearGradient id="paint2_linear_1_559" x1="91.5681" y1="99.0369" x2="-13.2127" y2="66.6992" gradientUnits="userSpaceOnUse">
<stop stop-color="#8C01DB"/>
<stop offset="1" stop-color="#FA614F"/>
</linearGradient>
<linearGradient id="paint3_linear_1_559" x1="91.5681" y1="99.0369" x2="-13.2127" y2="66.6992" gradientUnits="userSpaceOnUse">
<stop stop-color="#8C01DB"/>
<stop offset="1" stop-color="#FA614F"/>
</linearGradient>
<linearGradient id="paint4_linear_1_559" x1="91.5681" y1="99.0369" x2="-13.2127" y2="66.6992" gradientUnits="userSpaceOnUse">
<stop stop-color="#8C01DB"/>
<stop offset="1" stop-color="#FA614F"/>
</linearGradient>
<linearGradient id="paint5_linear_1_559" x1="91.5681" y1="99.0369" x2="-13.2127" y2="66.6992" gradientUnits="userSpaceOnUse">
<stop stop-color="#8C01DB"/>
<stop offset="1" stop-color="#FA614F"/>
</linearGradient>
</defs>
</svg>
