<svg width="15" height="17" viewBox="0 0 15 17" fill="none" xmlns="http://www.w3.org/2000/svg">
<path d="M1.49124 0.707734L2.38406 0.219596C3.21968 -0.237303 4.26131 0.0387149 4.81712 0.86436L5.92383 2.50927C6.40619 3.22537 6.40007 4.17902 5.9088 4.86629L4.54359 6.77874C4.83097 7.70951 5.33105 8.58352 6.04471 9.40062C6.72593 10.193 7.55919 10.8406 8.49517 11.3052L10.3763 10.2445C11.0889 9.84348 11.9752 9.97538 12.5755 10.5715L13.9737 11.9601C14.6726 12.6536 14.7876 13.7736 14.2443 14.5809L13.6619 15.4462C13.0824 16.3073 12.1064 16.7685 11.0982 16.6556C8.71926 16.3899 6.25487 14.7117 3.70413 11.621C1.14972 8.52553 -0.0831884 5.71699 0.00433147 3.19927C0.0412899 2.13973 0.607616 1.19134 1.493 0.707392" fill="white"/>
</svg>
