<svg width="116" height="80" viewBox="0 0 116 80" fill="none" xmlns="http://www.w3.org/2000/svg">
<path opacity="0.1" d="M30.5391 33.374C37.2397 33.374 42.6946 35.3068 46.904 39.1725C51.1133 43.0382 53.218 48.4502 53.218 55.4085C53.218 62.3668 50.8985 68.0795 46.2597 72.5465C41.6208 77.0136 35.0491 79.2471 26.5445 79.2471C18.04 79.2471 11.4683 76.4552 6.82942 70.8714C2.27648 65.2017 0 57.8998 0 48.9657C0 40.4611 2.10467 33.0304 6.314 26.6734C10.6092 20.3165 15.8924 14.9474 22.1634 10.5663C28.5204 6.09923 34.7484 2.57714 40.8477 0L46.1308 10.6951C42.1792 12.3273 38.0987 14.5608 33.8894 17.3957C29.766 20.2306 26.2868 23.3661 23.452 26.8023C20.6171 30.1525 19.1567 33.5028 19.0708 36.8531C19.4145 36.4236 20.5742 35.7364 22.55 34.7914C24.6117 33.8464 27.2747 33.374 30.5391 33.374ZM93.0348 33.374C99.7353 33.374 105.19 35.3068 109.4 39.1725C113.609 43.0382 115.714 48.4502 115.714 55.4085C115.714 62.3668 113.394 68.0795 108.755 72.5465C104.116 77.0136 97.5448 79.2471 89.0402 79.2471C80.5356 79.2471 73.9639 76.4552 69.3251 70.8714C64.7721 65.2017 62.4957 57.8998 62.4957 48.9657C62.4957 40.4611 64.6003 33.0304 68.8097 26.6734C73.1049 20.3165 78.388 14.9474 84.6591 10.5663C91.016 6.09923 97.2441 2.57714 103.343 0L108.626 10.6951C104.675 12.3273 100.594 14.5608 96.3851 17.3957C92.2616 20.2306 88.7825 23.3661 85.9476 26.8023C83.1128 30.1525 81.6524 33.5028 81.5665 36.8531C81.9101 36.4236 83.0698 35.7364 85.0456 34.7914C87.1073 33.8464 89.7704 33.374 93.0348 33.374Z" fill="white"/>
</svg>
