<svg width="31" height="112" viewBox="0 0 31 112" fill="none" xmlns="http://www.w3.org/2000/svg">
<g opacity="0.5">
<path d="M15.1214 38.9947L6.33754e-06 51.6141L1.58491 53.508L15.1214 42.2044L28.6679 53.508L30.2428 51.6141L15.1214 38.9947Z" fill="white"/>
<path d="M15.1214 97.4866L7.03505e-06 110.106L1.58491 112L15.1214 100.696L28.6679 112L30.2428 110.106L15.1214 97.4866Z" fill="white"/>
<path d="M15.1214 19.4973L6.10515e-06 32.1267L1.58491 34.0107L15.1214 22.707L28.6679 34.0107L30.2428 32.1267L15.1214 19.4973Z" fill="white"/>
<path d="M15.1214 77.9893L6.80266e-06 90.6187L1.58491 92.5027L15.1214 81.199L28.6679 92.5027L30.2428 90.6187L15.1214 77.9893Z" fill="white"/>
<path d="M15.1214 1.80321e-07L5.87253e-06 12.6194L1.58491 14.5133L15.1214 3.20965L28.6679 14.5133L30.2428 12.6194L15.1214 1.80321e-07Z" fill="white"/>
<path d="M15.1214 58.492L6.57004e-06 71.1114L1.58491 73.0053L15.1214 61.7016L28.6679 73.0053L30.2428 71.1114L15.1214 58.492Z" fill="white"/>
</g>
</svg>
