<svg width="54" height="56" viewBox="0 0 54 56" fill="none" xmlns="http://www.w3.org/2000/svg">
<path d="M34.6517 54.2125C32.0628 54.2125 29.5547 53.2577 27.1891 51.3623C25.3127 49.8565 6.19767 31.2212 6.00291 31.036C5.23337 30.2664 4.74884 29.4684 4.61584 28.7368C4.47808 27.9768 4.71084 27.3118 5.32838 26.6942C5.90316 26.1194 6.60619 25.8154 7.36148 25.8154C8.28303 25.8154 9.22833 26.2524 10.0169 27.0457L17.9166 34.6367C18.0543 34.7697 18.2348 34.8362 18.4106 34.8362C18.5958 34.8362 18.7763 34.7649 18.9141 34.6271C19.1896 34.3516 19.1896 33.9051 18.9189 33.6296L6.30693 20.6044C5.04336 19.3408 4.44958 17.4075 5.95066 15.9064C6.52544 15.3316 7.22848 15.0276 7.98377 15.0276C8.90532 15.0276 9.85062 15.4646 10.6392 16.2579L23.5409 28.8366C23.6786 28.9696 23.8591 29.0408 24.0396 29.0408C24.2201 29.0408 24.4054 28.9696 24.5432 28.8318C24.8187 28.5563 24.8234 28.1098 24.5479 27.8295L9.05258 11.9447C8.33529 11.2274 7.90301 10.3676 7.82701 9.53155C7.75576 8.68125 8.05502 7.89271 8.69631 7.25142C9.27109 6.67664 9.97412 6.37263 10.7294 6.37263C11.651 6.37263 12.5963 6.80965 13.3848 7.59819L29.1889 23.008C29.3267 23.141 29.5072 23.2123 29.6877 23.2123C29.8682 23.2123 30.0535 23.141 30.1912 23.0033C30.4667 22.7278 30.4715 22.2812 30.196 22.001L18.7193 10.2061C17.9973 9.48404 17.565 8.629 17.4938 7.79295C17.4225 6.94266 17.7218 6.15411 18.3631 5.51283C18.9379 4.93805 19.6409 4.63403 20.3962 4.63403C21.3177 4.63403 22.263 5.07106 23.0516 5.86435C27.2603 9.99707 38.2476 20.8039 38.6182 21.2029C38.9127 21.5592 39.2499 21.6399 39.4732 21.6399C40.2998 21.6399 40.7368 20.6756 40.808 19.7208C40.8888 18.6093 40.5943 17.284 40.2808 15.8826C39.8912 14.1345 39.4875 12.3247 39.934 11.2654C40.8128 9.18478 42.8459 7.50319 43.9384 7.50319C44.0477 7.50319 44.1427 7.52219 44.2235 7.56019C46.1901 8.48174 46.1188 9.66455 45.7388 12.491L45.6675 13.0372C45.3018 15.8494 46.7696 19.3788 48.0617 22.495C48.589 23.7633 49.0877 24.9651 49.4345 26.0387C49.6435 26.6895 49.9618 27.383 50.3323 28.1858C52.3036 32.499 55.2868 39.0116 45.6248 48.6737C41.9338 52.3504 38.2429 54.2125 34.6517 54.2125Z" fill="url(#paint0_radial_1_1018)"/>
<path d="M20.3959 5.34182C21.118 5.34182 21.9018 5.71235 22.5573 6.36788C28.5236 12.2344 37.5254 21.0842 38.0859 21.6732C38.5942 22.2575 39.1689 22.3477 39.473 22.3477C40.5845 22.3477 41.4063 21.3122 41.5156 19.7636C41.6011 18.5475 41.2971 17.1747 40.974 15.7211C40.6273 14.1583 40.2283 12.3865 40.5893 11.5362C41.3968 9.62656 43.2542 8.22523 43.9477 8.21098C45.368 8.88552 45.4155 9.52205 45.0308 12.3912L44.9595 12.9375C44.57 15.9396 46.0758 19.5641 47.4011 22.7563C47.9237 24.0103 48.4129 25.1979 48.755 26.2429C48.9782 26.9317 49.3202 27.6775 49.6813 28.4661C50.6313 30.5467 51.8189 33.1356 51.6289 36.3087C51.4009 40.1279 49.2727 44.0042 45.1163 48.1559C41.5678 51.7043 38.0479 53.5047 34.6515 53.5047C32.2288 53.5047 29.868 52.5974 27.6353 50.8065C26.101 49.5762 11.8597 35.7482 6.5157 30.5372C5.17613 29.1976 4.94811 28.0718 5.83166 27.193C6.27819 26.7465 6.79121 26.5232 7.36124 26.5232C8.08328 26.5232 8.86707 26.8937 9.51311 27.5445C9.51786 27.5493 9.52736 27.5588 9.53211 27.5635L17.4223 35.1449C17.6978 35.4109 18.0541 35.5439 18.4103 35.5439C18.7761 35.5439 19.1419 35.4014 19.4221 35.1259C19.9684 34.5749 19.9779 33.6866 19.4364 33.1308L6.80546 20.0914C6.21168 19.4976 5.85066 18.7993 5.79366 18.1248C5.73666 17.4787 5.95992 16.9039 6.45395 16.4099C6.90047 15.9634 7.4135 15.7401 7.98353 15.7401C8.70557 15.7401 9.48936 16.1107 10.1496 16.7709L23.0466 29.3401C23.3221 29.6109 23.6831 29.7439 24.0394 29.7439C24.4052 29.7439 24.7709 29.6061 25.0464 29.3259C25.5975 28.7748 25.6022 27.8818 25.0607 27.3213L9.55111 11.4364C8.06428 9.94957 8.4348 8.5245 9.20434 7.75495C9.65087 7.30843 10.1639 7.08517 10.7339 7.08517C11.456 7.08517 12.2398 7.45569 12.9 8.11597L28.6994 23.5211C28.9749 23.7918 29.3359 23.9248 29.6922 23.9248C30.058 23.9248 30.4237 23.7871 30.6992 23.5068C31.2503 22.9558 31.255 22.0627 30.7135 21.5069L19.2179 9.69781C18.6241 9.10403 18.2631 8.40574 18.2061 7.7312C18.1491 7.08517 18.3723 6.51039 18.8664 6.01636C19.3129 5.56984 19.8259 5.34182 20.3959 5.34182ZM20.3959 3.91675C19.4934 3.91675 18.6051 4.25877 17.8593 5.00456C16.1967 6.66715 16.5387 9.03277 18.2061 10.7001L29.6874 22.495L13.8928 7.09467C12.9713 6.17312 11.8407 5.66009 10.7339 5.66009C9.83138 5.66009 8.94308 6.00211 8.19729 6.7479C6.5347 8.41049 6.87672 10.7761 8.54406 12.4435L24.0394 28.3236L11.1424 15.7544C10.2209 14.8328 9.09034 14.3198 7.98353 14.3198C7.08098 14.3198 6.19268 14.6618 5.44689 15.4076C3.7843 17.0702 4.12632 19.4358 5.79366 21.1032L18.4103 34.1141L10.5202 26.5327C9.59861 25.6112 8.46805 25.0981 7.36124 25.0981C6.4587 25.0981 5.5704 25.4402 4.82461 26.1859C3.16202 27.8485 3.84131 29.8769 5.50865 31.549C5.50865 31.549 24.8184 50.379 26.747 51.9228C28.4049 53.2529 31.1268 54.9345 34.6515 54.9345C37.8721 54.9345 41.7626 53.5332 46.1233 49.1677C57.9135 37.3775 51.4246 29.8579 50.1088 25.8059C48.888 22.0342 45.8953 16.8279 46.3751 13.118C46.7551 10.1681 47.2159 8.16348 44.5272 6.90466C44.3515 6.81915 44.152 6.78115 43.943 6.78115C42.4229 6.78115 40.1903 8.81901 39.283 10.9756C38.3662 13.1512 40.2758 17.2317 40.1 19.6591C40.0572 20.2576 39.815 20.9179 39.4777 20.9179C39.378 20.9179 39.2687 20.8609 39.1547 20.7232C38.9457 20.4714 23.5596 5.35608 23.5596 5.35608C22.6381 4.43453 21.5028 3.91675 20.3959 3.91675Z" fill="#FF9900"/>
<mask id="mask0_1_1018" style="mask-type:luminance" maskUnits="userSpaceOnUse" x="25" y="7" width="29" height="49">
<path d="M43.107 7.84521C41.4967 7.75971 39.1691 9.28454 38.0433 11.8734C37.0932 14.049 41.1452 21.6637 41.1452 21.6637L37.6965 20.8182C37.6965 20.8182 22.9042 50.0512 26.0726 52.5926C29.241 55.134 36.9887 58.3072 46.1234 49.1677C57.9136 37.3776 51.4247 29.8579 50.1089 25.8059C48.8881 22.0342 44.6841 14.6333 46.0332 12.0444C46.912 10.3771 44.4656 7.91647 43.107 7.84521Z" fill="white"/>
</mask>
<g mask="url(#mask0_1_1018)">
<path d="M38.9649 19.8349C36.699 24.8939 37.9864 30.5087 41.188 36.3563C41.6298 37.1639 42.3851 36.7696 42.0003 35.9383C37.9626 27.2928 41.5823 19.4834 41.5823 19.4834L38.9649 19.8349Z" fill="#FF9900"/>
</g>
<path d="M4.64899 36.5843C5.46128 38.9262 7.12862 40.5698 9.56075 41.1588C10.8956 41.4818 11.4704 39.4202 10.1308 39.0972C8.44919 38.6934 7.28538 37.6626 6.71535 36.019C6.26408 34.7269 4.19772 35.2827 4.64899 36.5843Z" fill="#4F4F4F"/>
<path d="M0.0556296 37.0545C1.73247 42.3273 6.64898 44.978 12.0215 43.9139C13.3706 43.6479 12.8006 41.5863 11.4515 41.8523C7.25702 42.6836 3.42356 40.5982 2.11249 36.4845C1.69922 35.1782 -0.362393 35.734 0.0556296 37.0545Z" fill="#4F4F4F"/>
<path d="M29.7921 6.88567C31.4642 7.18019 32.8133 8.03049 33.4878 9.63607C33.7111 10.1729 34.1909 10.5434 34.8037 10.3819C35.3072 10.2489 35.7727 9.59807 35.5494 9.06604C34.5899 6.77642 32.837 5.25634 30.3622 4.81931C29.0178 4.58655 28.4383 6.64816 29.7921 6.88567Z" fill="#4F4F4F"/>
<path d="M29.1461 2.14488C33.4546 2.61041 36.1623 6.10185 36.1528 10.3343C36.148 11.7119 38.2856 11.7119 38.2904 10.3343C38.3046 4.83828 34.6089 0.60105 29.1461 0.00726793C27.7828 -0.13999 27.7923 1.99762 29.1461 2.14488Z" fill="#4F4F4F"/>
<defs>
<radialGradient id="paint0_radial_1_1018" cx="0" cy="0" r="1" gradientUnits="userSpaceOnUse" gradientTransform="translate(17.8186 16.6528) rotate(-45) scale(42.6743)">
<stop offset="0.3533" stop-color="#FFCA28"/>
<stop offset="0.8723" stop-color="#FFB300"/>
</radialGradient>
</defs>
</svg>
