<svg width="105" height="102" viewBox="0 0 105 102" fill="none" xmlns="http://www.w3.org/2000/svg">
<path opacity="0.2" fill-rule="evenodd" clip-rule="evenodd" d="M53.8154 0C82.7585 0 104.399 25.2242 104.399 54.1673C104.399 81.1468 80.7949 101.221 53.8154 101.221C25.8986 101.221 0 82.0841 0 54.1673C0 24.3485 23.9966 0 53.8154 0Z" fill="white"/>
<path d="M52.1996 20.6106C35.6696 20.6106 22.1996 34.0806 22.1996 50.6106C22.1996 67.1406 35.6696 80.6106 52.1996 80.6106C68.7296 80.6106 82.1996 67.1406 82.1996 50.6106C82.1996 34.0806 68.7296 20.6106 52.1996 20.6106ZM25.2296 50.6106C25.2296 46.7106 26.0696 42.9906 27.5696 39.6306L40.4396 74.8806C31.4396 70.5006 25.2296 61.2906 25.2296 50.6106ZM52.1996 77.5806C49.5596 77.5806 47.0096 77.1906 44.5796 76.4706L52.6796 52.9506L60.9596 75.6606C61.0196 75.7806 61.0796 75.9306 61.1396 76.0206C58.3496 77.0406 55.3496 77.5806 52.1996 77.5806ZM55.9196 37.9506C57.5396 37.8606 59.0096 37.6806 59.0096 37.6806C60.4496 37.5006 60.2996 35.3706 58.8296 35.4606C58.8296 35.4606 54.4496 35.7906 51.6296 35.7906C48.9896 35.7906 44.5196 35.4606 44.5196 35.4606C43.0796 35.4006 42.8996 37.6206 44.3696 37.7106C44.3696 37.7106 45.7496 37.8906 47.1896 37.9806L51.3896 49.5006L45.4796 67.2006L35.6696 37.9506C37.2896 37.8906 38.7596 37.7106 38.7596 37.7106C40.1996 37.5306 40.0496 35.4006 38.5796 35.4906C38.5796 35.4906 34.1996 35.8206 31.3796 35.8206C30.8696 35.8206 30.2696 35.8206 29.6396 35.7906C34.4996 28.4706 42.7796 23.6406 52.1996 23.6406C59.2196 23.6406 65.6096 26.3106 70.4096 30.7206C70.2896 30.7206 70.1696 30.6906 70.0496 30.6906C67.4096 30.6906 65.5196 33.0006 65.5196 35.4906C65.5196 37.7106 66.8096 39.6006 68.1596 41.8206C69.1796 43.6206 70.3796 45.9306 70.3796 49.2606C70.3796 51.5706 69.4796 54.2406 68.3396 57.9906L65.6396 66.9906L55.9196 37.9506ZM75.8696 37.6806C79.2392 43.8475 80.0681 51.0863 78.1797 57.8553C76.2914 64.6243 71.835 70.3886 65.7596 73.9206L74.0096 50.1006C75.5396 46.2606 76.0496 43.1706 76.0496 40.4406C76.0496 39.4506 75.9896 38.5206 75.8696 37.6806Z" fill="#F4F5F8"/>
</svg>
